<svg width="60" height="68" viewBox="0 0 60 68" fill="none" xmlns="http://www.w3.org/2000/svg">
<path d="M26.3229 0.255501C16.8555 1.12389 8.03724 7.17546 3.30352 16.0764C0.73378 20.934 -0.185915 25.0859 0.0304839 31.029C0.165733 35.2081 0.355082 36.3207 1.51823 39.8485C4.43961 48.6409 11.5537 55.6966 20.5072 58.6817C24.3483 59.9571 27.0533 60.3099 31.7059 60.1199C35.5199 59.9843 38.3601 59.3872 41.1733 58.1932L42.2282 57.759L43.4184 58.9802C44.4463 60.0657 44.5816 60.337 44.5816 61.5039C44.5816 63.7563 43.0397 65.4117 40.6323 65.7916C39.4151 65.9544 37.4675 65.3031 36.7642 64.4619C36.2502 63.8377 35.4658 63.892 35.0871 64.5704C34.6813 65.3845 35.4387 66.3886 37.0888 67.2027C38.82 68.0982 40.1454 68.2068 42.0118 67.6912C45.9341 66.5243 48.071 62.1824 46.3128 58.8174C45.3931 56.972 43.1479 55.5338 39.4962 54.3669C37.4404 53.7156 35.6551 52.6301 35.6551 52.0059C35.6551 51.8703 35.9797 52.0059 36.3584 52.3045C36.7642 52.6301 38.279 53.2543 39.7397 53.6884C41.2004 54.1498 43.0668 54.8825 43.9053 55.3167C45.6365 56.2393 45.5824 56.2393 48.0981 54.4211C51.8309 51.7074 55.8343 46.8228 57.7278 42.6979C58.6205 40.744 60 36.375 60 35.5337C60 35.2895 59.5401 35.9408 58.9721 36.9991C56.9163 40.8797 54.8335 43.3492 51.5875 45.8187C48.7202 47.9625 44.5816 49.9707 41.6873 50.5677L40.8217 50.7305L41.7414 49.1837C44.0947 45.2488 44.0947 41.1511 41.6873 37.2434C39.8479 34.2311 39.8479 34.204 39.8479 31.2732C39.8479 28.6138 39.8208 28.5052 38.847 26.9313C37.4945 24.706 37.3863 24.1361 38.1978 23.2135C38.847 22.4536 38.8741 22.4536 39.7667 22.8878L40.6594 23.322L39.8479 22.6436L39.0364 21.938L39.7126 21.9109C40.1725 21.8838 40.2266 21.8295 39.929 21.7481C39.6585 21.6938 39.4421 21.531 39.4421 21.3953C39.4421 21.2596 39.6585 21.0968 39.929 21.0425C40.3618 20.934 40.3618 20.9068 39.929 20.8797C39.5774 20.8526 39.4421 20.6355 39.4421 20.0927C39.4421 19.6857 39.3069 18.9258 39.1716 18.4102C39.0093 17.8946 38.847 16.4021 38.82 15.0995C38.7659 13.6612 38.6036 12.6029 38.3872 12.3315C38.0626 11.9516 37.9544 11.9516 37.2781 12.4401C36.8724 12.7114 36.2773 13.3627 35.9527 13.8512C35.3576 14.7196 35.3035 14.7467 33.6534 14.6653C32.0305 14.5839 31.9223 14.5025 30.6509 13.227C29.9476 12.4943 29.2443 11.8973 29.1361 11.8973C28.7033 11.8973 28.514 12.6029 28.2976 15.398C27.8918 20.4998 27.8377 20.8526 27.1615 20.8797C26.6475 20.8797 26.6475 20.9068 27.2697 21.1782C27.9189 21.4496 27.9189 21.4496 27.4049 21.6667C26.9451 21.8566 26.9721 21.9109 27.6754 21.9109L28.4869 21.938L27.6213 22.4808C26.4852 23.1592 26.4582 23.4577 27.5943 22.8607C28.4599 22.4265 28.4599 22.4265 29.082 23.1863C29.4337 23.6205 29.7042 24.0819 29.7042 24.2176C29.7042 24.3804 29.2173 25.3302 28.5951 26.3343C27.3238 28.5052 27.0262 29.8892 27.3779 32.033C27.5943 33.4713 27.5672 33.7155 26.8639 35.0181C23.8073 40.8526 23.9967 40.2556 24.0778 43.2407C24.1589 45.6287 24.2671 46.1715 25.0245 47.7726L25.8901 49.6179L24.8893 49.1837C16.9096 45.8458 11.0939 38.4645 9.55203 29.6721C8.44299 23.4849 9.93073 16.7277 13.5554 11.3546C14.9079 9.34643 18.3432 5.95429 20.5072 4.48889C22.9147 2.83353 26.5393 1.2053 28.8386 0.743973C29.8665 0.526871 30.3804 0.309776 30.164 0.174088C29.8124 -0.0701447 29.7583 -0.0701447 26.3229 0.255501Z" fill="#3C0008"/>
</svg>
