<svg width="20" height="20" viewBox="0 0 20 20" fill="none" xmlns="http://www.w3.org/2000/svg">
<path d="M10.002 7.13672C10.3715 7.69502 10.8383 8.18502 11.3828 8.58105C11.9288 8.97815 12.5406 9.27174 13.1875 9.45117C12.8408 9.88691 12.56 10.3722 12.3555 10.8916L12.2402 11.2129C12.0317 11.854 11.9408 12.5255 11.9697 13.1953C11.4478 13.0002 10.8993 12.8825 10.3418 12.8486L10.001 12.8389C9.32676 12.8389 8.66019 12.9605 8.03223 13.1953C8.05632 12.6389 7.9995 12.0814 7.85938 11.541L7.76367 11.2139L7.64844 10.8926C7.44368 10.3725 7.16174 9.88736 6.81445 9.45117C7.46124 9.27218 8.07307 8.9796 8.61914 8.58301C9.16465 8.18677 9.63186 7.69574 10.002 7.13672Z" stroke="#D99400" stroke-width="7" stroke-linecap="round" stroke-linejoin="round"/>
</svg>
