<svg width="299" height="484" viewBox="0 0 299 484" fill="none" xmlns="http://www.w3.org/2000/svg">
<g clip-path="url(#clip0_139_967)">
<mask id="mask0_139_967" style="mask-type:luminance" maskUnits="userSpaceOnUse" x="0" y="0" width="299" height="483">
<path d="M279.8 0.856157L8.62623 6.83655C4.20903 6.93397 0.707145 10.5938 0.804561 15.011L10.9518 475.126C11.0492 479.543 14.709 483.045 19.1263 482.948L290.3 476.967C294.718 476.87 298.219 473.21 298.122 468.793L287.975 8.67783C287.877 4.26062 284.217 0.758742 279.8 0.856157Z" fill="white"/>
</mask>
<g mask="url(#mask0_139_967)">
<path d="M11.1282 483.124L0.628326 7.01954L287.802 0.686279L298.302 476.79L11.1282 483.124Z" fill="#3C0008"/>
<path d="M277.174 456.574L267.586 21.8142L21.7563 27.2357L31.3443 461.995L277.174 456.574Z" fill="#3C0008" stroke="#F3F3F3" stroke-width="4"/>
<path d="M170.38 25.9587C170.693 40.1339 159.456 51.8765 145.281 52.1891C131.107 52.5017 119.362 41.2659 119.05 27.0907L170.38 25.9587Z" fill="#3C0008"/>
<path d="M170.38 25.9587C170.693 40.1339 159.456 51.8765 145.281 52.1891C131.107 52.5017 119.362 41.2659 119.05 27.0907L170.38 25.9587Z" stroke="#F3F3F3" stroke-miterlimit="10" stroke-linecap="round" stroke-linejoin="round"/>
<path d="M274.402 421.588L32.5713 426.921L33.2997 459.952L275.131 454.618L274.402 421.588Z" fill="#3C0008"/>
<path d="M274.402 421.588L32.5713 426.921L33.2997 459.952L275.131 454.618L274.402 421.588Z" stroke="#F3F3F3" stroke-miterlimit="10" stroke-linecap="round" stroke-linejoin="round"/>
<path d="M156.035 199.229C158.451 192.365 160.196 185.266 161.24 178.064" stroke="#F3F3F3" stroke-miterlimit="10" stroke-linecap="round" stroke-linejoin="round"/>
<path d="M162.289 165.601C163.198 157.086 164.491 148.61 166.161 140.21" stroke="#F3F3F3" stroke-miterlimit="10" stroke-linecap="round" stroke-linejoin="round"/>
<path d="M166.017 132.095C166.407 129.69 166.796 127.286 167.186 124.881" stroke="#F3F3F3" stroke-miterlimit="10" stroke-linecap="round" stroke-linejoin="round"/>
<path d="M171.194 110.46C172.645 106.123 173.525 101.594 173.804 97.0298" stroke="#F3F3F3" stroke-miterlimit="10" stroke-linecap="round" stroke-linejoin="round"/>
<path d="M174.435 86.0065C176.417 78.4156 178.078 70.7411 179.412 63.0098" stroke="#F3F3F3" stroke-miterlimit="10" stroke-linecap="round" stroke-linejoin="round"/>
<path d="M172.745 176.883C174.718 172.065 176.689 167.246 178.662 162.428" stroke="#F3F3F3" stroke-miterlimit="10" stroke-linecap="round" stroke-linejoin="round"/>
<path d="M186.381 145.523C187.929 142.316 189.477 139.11 191.024 135.903" stroke="#F3F3F3" stroke-miterlimit="10" stroke-linecap="round" stroke-linejoin="round"/>
<path d="M197.623 117.984C201.605 110.963 204.924 103.565 207.523 95.9221" stroke="#F3F3F3" stroke-miterlimit="10" stroke-linecap="round" stroke-linejoin="round"/>
<path d="M214.918 77.0105C217.507 72.8231 219.804 68.4567 221.791 63.9531" stroke="#F3F3F3" stroke-miterlimit="10" stroke-linecap="round" stroke-linejoin="round"/>
<path d="M176.868 200.577C182.931 188.121 189.85 176.084 197.562 164.577" stroke="#F3F3F3" stroke-miterlimit="10" stroke-linecap="round" stroke-linejoin="round"/>
<path d="M206.344 150.219C208.535 146.375 210.727 142.532 212.919 138.688" stroke="#F3F3F3" stroke-miterlimit="10" stroke-linecap="round" stroke-linejoin="round"/>
<path d="M217.532 128.595C219.084 126.493 220.635 124.392 222.186 122.29" stroke="#F3F3F3" stroke-miterlimit="10" stroke-linecap="round" stroke-linejoin="round"/>
<path d="M229.99 106.835C231.645 104.224 233.3 101.612 234.955 99.0007" stroke="#F3F3F3" stroke-miterlimit="10" stroke-linecap="round" stroke-linejoin="round"/>
<path d="M243.399 86.0006C247.012 80.489 250.893 75.1515 255.024 70.0151" stroke="#F3F3F3" stroke-miterlimit="10" stroke-linecap="round" stroke-linejoin="round"/>
<path d="M199.998 189.024C203.445 183.932 207.084 178.969 210.903 174.149" stroke="#F3F3F3" stroke-miterlimit="10" stroke-linecap="round" stroke-linejoin="round"/>
<path d="M221.145 161.503C222.987 159.06 224.828 156.618 226.669 154.175" stroke="#F3F3F3" stroke-miterlimit="10" stroke-linecap="round" stroke-linejoin="round"/>
<path d="M235.95 142.488C239.075 139.204 241.881 135.615 244.315 131.79" stroke="#F3F3F3" stroke-miterlimit="10" stroke-linecap="round" stroke-linejoin="round"/>
<path d="M251.804 122.593C254.629 119.756 256.974 116.443 258.712 112.837" stroke="#F3F3F3" stroke-miterlimit="10" stroke-linecap="round" stroke-linejoin="round"/>
<path d="M195.388 213.561C197.945 210.405 200.798 207.489 203.897 204.864" stroke="#F3F3F3" stroke-miterlimit="10" stroke-linecap="round" stroke-linejoin="round"/>
<path d="M214.935 195.736C220.965 190.617 226.995 185.498 233.024 180.379" stroke="#F3F3F3" stroke-miterlimit="10" stroke-linecap="round" stroke-linejoin="round"/>
<path d="M243.26 170.99C247.654 165.957 253.148 161.888 259.244 159.153" stroke="#F3F3F3" stroke-miterlimit="10" stroke-linecap="round" stroke-linejoin="round"/>
<path d="M214.582 213.682C217.554 211.58 220.717 209.748 224.019 208.216" stroke="#F3F3F3" stroke-miterlimit="10" stroke-linecap="round" stroke-linejoin="round"/>
<path d="M236.111 200.037C241.245 196.952 246.503 194.073 251.867 191.408" stroke="#F3F3F3" stroke-miterlimit="10" stroke-linecap="round" stroke-linejoin="round"/>
<path d="M200.273 234.205C206.875 231.589 213.478 228.975 220.08 226.359" stroke="#F3F3F3" stroke-miterlimit="10" stroke-linecap="round" stroke-linejoin="round"/>
<path d="M231.963 222.339C233.556 221.705 235.147 221.07 236.741 220.435" stroke="#F3F3F3" stroke-miterlimit="10" stroke-linecap="round" stroke-linejoin="round"/>
<path d="M246.189 217.631C249.127 217.142 252.013 216.348 254.787 215.264" stroke="#F3F3F3" stroke-miterlimit="10" stroke-linecap="round" stroke-linejoin="round"/>
<path d="M205.659 243.848C208.626 243.057 211.673 242.561 214.739 242.369" stroke="#F3F3F3" stroke-miterlimit="10" stroke-linecap="round" stroke-linejoin="round"/>
<path d="M228.089 241.099C229.696 241.174 231.315 240.975 232.856 240.516" stroke="#F3F3F3" stroke-miterlimit="10" stroke-linecap="round" stroke-linejoin="round"/>
<path d="M243.331 238.851C248.115 238.97 252.909 238.704 257.649 238.058" stroke="#F3F3F3" stroke-miterlimit="10" stroke-linecap="round" stroke-linejoin="round"/>
<path d="M198.752 254.162C202.114 255.057 205.475 255.953 208.835 256.848" stroke="#F3F3F3" stroke-miterlimit="10" stroke-linecap="round" stroke-linejoin="round"/>
<path d="M217.948 258.593C219.39 258.865 220.833 259.138 222.276 259.41" stroke="#F3F3F3" stroke-miterlimit="10" stroke-linecap="round" stroke-linejoin="round"/>
<path d="M234.813 261.83C241.586 264.189 248.704 265.562 255.869 265.891" stroke="#F3F3F3" stroke-miterlimit="10" stroke-linecap="round" stroke-linejoin="round"/>
<path d="M207.207 269.267C209.293 269.488 211.315 270.28 212.995 271.532" stroke="#F3F3F3" stroke-miterlimit="10" stroke-linecap="round" stroke-linejoin="round"/>
<path d="M219.756 275.735C221.697 276.452 223.638 277.171 225.579 277.889" stroke="#F3F3F3" stroke-miterlimit="10" stroke-linecap="round" stroke-linejoin="round"/>
<path d="M233.933 285.234C243.095 289.707 252.085 294.534 260.875 299.702" stroke="#F3F3F3" stroke-miterlimit="10" stroke-linecap="round" stroke-linejoin="round"/>
<path d="M198.216 275.251C202.476 279.453 207.061 283.325 211.917 286.824" stroke="#F3F3F3" stroke-miterlimit="10" stroke-linecap="round" stroke-linejoin="round"/>
<path d="M218.732 292.384C222.075 293.887 225.076 296.142 227.45 298.936" stroke="#F3F3F3" stroke-miterlimit="10" stroke-linecap="round" stroke-linejoin="round"/>
<path d="M239.26 307.603C244.943 312.97 251.023 317.917 257.433 322.388" stroke="#F3F3F3" stroke-miterlimit="10" stroke-linecap="round" stroke-linejoin="round"/>
<path d="M203.023 292.68C204.576 293.81 205.996 295.123 207.242 296.585" stroke="#F3F3F3" stroke-miterlimit="10" stroke-linecap="round" stroke-linejoin="round"/>
<path d="M214.677 303.981C216.444 306.039 218.211 308.095 219.979 310.151" stroke="#F3F3F3" stroke-miterlimit="10" stroke-linecap="round" stroke-linejoin="round"/>
<path d="M231.353 322.717C239.139 332.677 248 341.796 257.737 349.862" stroke="#F3F3F3" stroke-miterlimit="10" stroke-linecap="round" stroke-linejoin="round"/>
<path d="M181.225 287.104C184.04 291.707 187.211 296.095 190.699 300.212" stroke="#F3F3F3" stroke-miterlimit="10" stroke-linecap="round" stroke-linejoin="round"/>
<path d="M199.551 315.356C205.238 325.398 211.756 334.968 219.018 343.938" stroke="#F3F3F3" stroke-miterlimit="10" stroke-linecap="round" stroke-linejoin="round"/>
<path d="M228.312 358.15C230.129 361.137 231.946 364.124 233.762 367.112" stroke="#F3F3F3" stroke-miterlimit="10" stroke-linecap="round" stroke-linejoin="round"/>
<path d="M241.724 378.845C245.819 384.981 249.914 391.118 254.009 397.253" stroke="#F3F3F3" stroke-miterlimit="10" stroke-linecap="round" stroke-linejoin="round"/>
<path d="M182.337 308.506C183.145 310.732 183.952 312.957 184.758 315.182" stroke="#F3F3F3" stroke-miterlimit="10" stroke-linecap="round" stroke-linejoin="round"/>
<path d="M190.987 325.926C192.766 329.735 194.545 333.545 196.325 337.353" stroke="#F3F3F3" stroke-miterlimit="10" stroke-linecap="round" stroke-linejoin="round"/>
<path d="M203.184 352.072C204.06 354.433 204.937 356.793 205.813 359.153" stroke="#F3F3F3" stroke-miterlimit="10" stroke-linecap="round" stroke-linejoin="round"/>
<path d="M213.434 374.722C216.385 384.827 220.535 394.581 225.769 403.713" stroke="#F3F3F3" stroke-miterlimit="10" stroke-linecap="round" stroke-linejoin="round"/>
<path d="M163.27 297.499C163.834 300.83 164.4 304.161 164.965 307.49" stroke="#F3F3F3" stroke-miterlimit="10" stroke-linecap="round" stroke-linejoin="round"/>
<path d="M167.264 315.524C168.187 319.512 169.11 323.498 170.034 327.485" stroke="#F3F3F3" stroke-miterlimit="10" stroke-linecap="round" stroke-linejoin="round"/>
<path d="M172.928 341.712C173.458 346.69 174.378 351.628 175.676 356.463" stroke="#F3F3F3" stroke-miterlimit="10" stroke-linecap="round" stroke-linejoin="round"/>
<path d="M180.593 371.592C182.763 381.762 184.932 391.932 187.102 402.103" stroke="#F3F3F3" stroke-miterlimit="10" stroke-linecap="round" stroke-linejoin="round"/>
<path d="M154.144 312.018C153.919 315.687 153.693 319.356 153.469 323.026" stroke="#F3F3F3" stroke-miterlimit="10" stroke-linecap="round" stroke-linejoin="round"/>
<path d="M154.296 340.208C154.412 345.463 154.528 350.716 154.644 355.97" stroke="#F3F3F3" stroke-miterlimit="10" stroke-linecap="round" stroke-linejoin="round"/>
<path d="M155.546 371.246C155.477 375.069 155.409 378.894 155.341 382.718" stroke="#F3F3F3" stroke-miterlimit="10" stroke-linecap="round" stroke-linejoin="round"/>
<path d="M155.381 389.403C155.486 394.181 155.592 398.957 155.697 403.733" stroke="#F3F3F3" stroke-miterlimit="10" stroke-linecap="round" stroke-linejoin="round"/>
<path d="M143.46 299.856C141.367 307.613 139.601 315.458 138.165 323.364" stroke="#F3F3F3" stroke-miterlimit="10" stroke-linecap="round" stroke-linejoin="round"/>
<path d="M138.428 337.685C138.178 339.923 137.929 342.162 137.68 344.4" stroke="#F3F3F3" stroke-miterlimit="10" stroke-linecap="round" stroke-linejoin="round"/>
<path d="M136.183 361.153C136.466 365.02 136.051 368.936 134.966 372.659" stroke="#F3F3F3" stroke-miterlimit="10" stroke-linecap="round" stroke-linejoin="round"/>
<path d="M135.489 385.501C134.203 393.202 132.916 400.901 131.629 408.601" stroke="#F3F3F3" stroke-miterlimit="10" stroke-linecap="round" stroke-linejoin="round"/>
<path d="M128.332 316.84C127.622 318.785 126.911 320.729 126.201 322.673" stroke="#F3F3F3" stroke-miterlimit="10" stroke-linecap="round" stroke-linejoin="round"/>
<path d="M121.833 335.708C120.044 341.956 118.255 348.202 116.466 354.448" stroke="#F3F3F3" stroke-miterlimit="10" stroke-linecap="round" stroke-linejoin="round"/>
<path d="M112.842 367.878C111.946 370.764 111.05 373.65 110.154 376.534" stroke="#F3F3F3" stroke-miterlimit="10" stroke-linecap="round" stroke-linejoin="round"/>
<path d="M109.391 387.531C107.825 393.949 106.259 400.366 104.693 406.785" stroke="#F3F3F3" stroke-miterlimit="10" stroke-linecap="round" stroke-linejoin="round"/>
<path d="M124.554 292.118C121.67 297.908 119.554 304.079 118.278 310.421" stroke="#F3F3F3" stroke-miterlimit="10" stroke-linecap="round" stroke-linejoin="round"/>
<path d="M111.321 322.964C109.8 326.026 108.278 329.087 106.757 332.149" stroke="#F3F3F3" stroke-miterlimit="10" stroke-linecap="round" stroke-linejoin="round"/>
<path d="M100.189 343.719C98.5853 348.215 96.721 352.617 94.6086 356.896" stroke="#F3F3F3" stroke-miterlimit="10" stroke-linecap="round" stroke-linejoin="round"/>
<path d="M89.5478 371.274C85.633 384.154 81.1133 396.852 76.0082 409.309" stroke="#F3F3F3" stroke-miterlimit="10" stroke-linecap="round" stroke-linejoin="round"/>
<path d="M106.452 297.261C104.78 300.174 103.109 303.088 101.438 306.001" stroke="#F3F3F3" stroke-miterlimit="10" stroke-linecap="round" stroke-linejoin="round"/>
<path d="M92.1392 318.621C88.2463 326.173 84.2082 333.649 80.0269 341.045" stroke="#F3F3F3" stroke-miterlimit="10" stroke-linecap="round" stroke-linejoin="round"/>
<path d="M70.9568 353.038C69.892 355.449 68.8273 357.861 67.7619 360.272" stroke="#F3F3F3" stroke-miterlimit="10" stroke-linecap="round" stroke-linejoin="round"/>
<path d="M64.6426 368.969C58.2812 376.65 52.2711 384.622 46.6377 392.852" stroke="#F3F3F3" stroke-miterlimit="10" stroke-linecap="round" stroke-linejoin="round"/>
<path d="M105.264 279.708C103.564 282.29 101.863 284.872 100.162 287.455" stroke="#F3F3F3" stroke-miterlimit="10" stroke-linecap="round" stroke-linejoin="round"/>
<path d="M94.3344 293.112C89.2876 298.107 84.5211 303.386 80.0649 308.915" stroke="#F3F3F3" stroke-miterlimit="10" stroke-linecap="round" stroke-linejoin="round"/>
<path d="M72.0526 316.217C70.977 317.993 69.9007 319.77 68.825 321.544" stroke="#F3F3F3" stroke-miterlimit="10" stroke-linecap="round" stroke-linejoin="round"/>
<path d="M62.8616 329.392C56.1739 336.899 49.7972 344.681 43.7541 352.716" stroke="#F3F3F3" stroke-miterlimit="10" stroke-linecap="round" stroke-linejoin="round"/>
<path d="M83.1844 281.513C81.0089 283.64 78.8334 285.767 76.6579 287.893" stroke="#F3F3F3" stroke-miterlimit="10" stroke-linecap="round" stroke-linejoin="round"/>
<path d="M69.1993 291.981C67.9436 293.273 66.6884 294.565 65.4333 295.858" stroke="#F3F3F3" stroke-miterlimit="10" stroke-linecap="round" stroke-linejoin="round"/>
<path d="M59.2734 299.321C54.1606 302.911 49.2872 306.842 44.6972 311.08" stroke="#F3F3F3" stroke-miterlimit="10" stroke-linecap="round" stroke-linejoin="round"/>
<path d="M98.0004 258.739C93.4595 261.423 88.9186 264.105 84.3772 266.787" stroke="#F3F3F3" stroke-miterlimit="10" stroke-linecap="round" stroke-linejoin="round"/>
<path d="M75.2651 269.221C65.0278 275.155 54.7911 281.089 44.5544 287.023" stroke="#F3F3F3" stroke-miterlimit="10" stroke-linecap="round" stroke-linejoin="round"/>
<path d="M82.5093 248.61C79.3251 248.68 76.141 248.75 72.957 248.821" stroke="#F3F3F3" stroke-miterlimit="10" stroke-linecap="round" stroke-linejoin="round"/>
<path d="M61.9706 249.041C56.8675 249.24 51.7743 249.703 46.7194 250.429" stroke="#F3F3F3" stroke-miterlimit="10" stroke-linecap="round" stroke-linejoin="round"/>
<path d="M94.7183 235.227C90.9521 233.901 87.0547 232.948 83.1012 232.387" stroke="#F3F3F3" stroke-miterlimit="10" stroke-linecap="round" stroke-linejoin="round"/>
<path d="M71.0495 227.362C60.9769 225.999 51.0705 223.413 41.6182 219.677" stroke="#F3F3F3" stroke-miterlimit="10" stroke-linecap="round" stroke-linejoin="round"/>
<path d="M86.6207 217.927C84.2281 215.851 81.4183 214.258 78.4087 213.271" stroke="#F3F3F3" stroke-miterlimit="10" stroke-linecap="round" stroke-linejoin="round"/>
<path d="M69.6782 208.267C66.9369 206.734 64.1956 205.201 61.4543 203.667" stroke="#F3F3F3" stroke-miterlimit="10" stroke-linecap="round" stroke-linejoin="round"/>
<path d="M53.2374 197.083C47.3858 193.343 41.6747 189.383 36.121 185.214" stroke="#F3F3F3" stroke-miterlimit="10" stroke-linecap="round" stroke-linejoin="round"/>
<path d="M103.547 210.532C98.1008 206.596 92.6544 202.661 87.2079 198.724" stroke="#F3F3F3" stroke-miterlimit="10" stroke-linecap="round" stroke-linejoin="round"/>
<path d="M77.427 190.887C75.4835 189.172 73.54 187.456 71.597 185.739" stroke="#F3F3F3" stroke-miterlimit="10" stroke-linecap="round" stroke-linejoin="round"/>
<path d="M61.6362 176.167C52.1934 169.183 43.4296 161.283 35.5084 152.612" stroke="#F3F3F3" stroke-miterlimit="10" stroke-linecap="round" stroke-linejoin="round"/>
<path d="M96.3622 187.694C94.1061 185.008 91.8506 182.323 89.595 179.638" stroke="#F3F3F3" stroke-miterlimit="10" stroke-linecap="round" stroke-linejoin="round"/>
<path d="M80.3625 167.822C77.4238 163.792 74.1018 160.042 70.4562 156.64" stroke="#F3F3F3" stroke-miterlimit="10" stroke-linecap="round" stroke-linejoin="round"/>
<path d="M57.9193 139.394C50.6886 130.05 43.4573 120.705 36.2266 111.361" stroke="#F3F3F3" stroke-miterlimit="10" stroke-linecap="round" stroke-linejoin="round"/>
<path d="M121.585 198.515C120.629 195.965 119.29 193.559 117.628 191.402" stroke="#F3F3F3" stroke-miterlimit="10" stroke-linecap="round" stroke-linejoin="round"/>
<path d="M113.048 181.995C112.395 180.243 111.384 178.624 110.097 177.269" stroke="#F3F3F3" stroke-miterlimit="10" stroke-linecap="round" stroke-linejoin="round"/>
<path d="M102.978 162.195C94.6394 148.954 86.182 135.787 77.6064 122.698" stroke="#F3F3F3" stroke-miterlimit="10" stroke-linecap="round" stroke-linejoin="round"/>
<path d="M69.0884 105.651C67.521 102.285 65.6758 99.0462 63.578 95.981" stroke="#F3F3F3" stroke-miterlimit="10" stroke-linecap="round" stroke-linejoin="round"/>
<path d="M55.0365 88.6904C53.4306 86.3119 51.8246 83.9321 50.2192 81.5535" stroke="#F3F3F3" stroke-miterlimit="10" stroke-linecap="round" stroke-linejoin="round"/>
<path d="M130.425 193.098C129.253 188.653 128.082 184.208 126.91 179.765" stroke="#F3F3F3" stroke-miterlimit="10" stroke-linecap="round" stroke-linejoin="round"/>
<path d="M119.156 161.844C117.908 158.809 116.659 155.775 115.41 152.74" stroke="#F3F3F3" stroke-miterlimit="10" stroke-linecap="round" stroke-linejoin="round"/>
<path d="M110.048 135.25C107.429 127.607 104.262 120.153 100.579 112.961" stroke="#F3F3F3" stroke-miterlimit="10" stroke-linecap="round" stroke-linejoin="round"/>
<path d="M95.5213 94.0992C93.6919 89.8305 91.9564 85.5224 90.3164 81.1775" stroke="#F3F3F3" stroke-miterlimit="10" stroke-linecap="round" stroke-linejoin="round"/>
<path d="M138.901 190.527C137.289 182.502 136.207 174.369 135.665 166.202" stroke="#F3F3F3" stroke-miterlimit="10" stroke-linecap="round" stroke-linejoin="round"/>
<path d="M133.716 151.931C133.388 149.543 133.061 147.156 132.734 144.77" stroke="#F3F3F3" stroke-miterlimit="10" stroke-linecap="round" stroke-linejoin="round"/>
<path d="M129.135 127.633C128.753 124.614 128.372 121.596 127.989 118.577" stroke="#F3F3F3" stroke-miterlimit="10" stroke-linecap="round" stroke-linejoin="round"/>
<path d="M125.414 101.446C125 93.3291 124.586 85.2123 124.172 77.0955" stroke="#F3F3F3" stroke-miterlimit="10" stroke-linecap="round" stroke-linejoin="round"/>
<path d="M146.66 169.778C146.778 167.864 146.897 165.95 147.017 164.036" stroke="#F3F3F3" stroke-miterlimit="10" stroke-linecap="round" stroke-linejoin="round"/>
<path d="M147.6 144.914C147.488 139.819 147.376 134.724 147.263 129.629" stroke="#F3F3F3" stroke-miterlimit="10" stroke-linecap="round" stroke-linejoin="round"/>
<path d="M147.703 109.548C147.766 103.972 147.827 98.3976 147.889 92.8215" stroke="#F3F3F3" stroke-miterlimit="10" stroke-linecap="round" stroke-linejoin="round"/>
<path d="M146.495 76.1216C146.947 69.7568 146.923 63.3584 146.426 56.9985" stroke="#F3F3F3" stroke-miterlimit="10" stroke-linecap="round" stroke-linejoin="round"/>
<path d="M184.411 160.403C188.235 158.312 191.251 153.483 189.179 149.647C196.845 152.612 200.157 161.732 196.155 168.93C191.85 176.67 181.202 178.785 180.306 192.819C180.159 195.116 179.62 196.053 177.229 195.601C169.67 194.166 160.971 192.288 160.842 183.484C160.559 164.039 179.447 163.117 184.411 160.403Z" fill="#3C0008"/>
<path d="M184.411 160.403C188.235 158.312 191.251 153.483 189.179 149.647C196.845 152.612 200.157 161.732 196.155 168.93C191.85 176.67 181.202 178.785 180.306 192.819C180.159 195.116 179.62 196.053 177.229 195.601C169.67 194.166 160.971 192.288 160.842 183.484C160.559 164.039 179.447 163.117 184.411 160.403Z" stroke="#F3F3F3" stroke-miterlimit="10" stroke-linecap="round" stroke-linejoin="round"/>
<path d="M205.638 201.558C214.962 197.931 218.437 207.432 225.765 208.555C230.221 209.238 234.89 205.753 235.501 201.287C238.209 205.879 238.426 211.845 236.058 216.621C229.69 229.46 216.549 224.075 210.228 225.903C203.924 227.725 203.539 233.08 200.966 232.397C198.676 231.789 189.329 207.904 205.638 201.558Z" fill="#3C0008"/>
<path d="M205.638 201.558C214.962 197.931 218.437 207.432 225.765 208.555C230.221 209.238 234.89 205.753 235.501 201.287C238.209 205.879 238.426 211.845 236.058 216.621C229.69 229.46 216.549 224.075 210.228 225.903C203.924 227.725 203.539 233.08 200.966 232.397C198.676 231.789 189.329 207.904 205.638 201.558Z" stroke="#F3F3F3" stroke-miterlimit="10" stroke-linecap="round" stroke-linejoin="round"/>
<path d="M207.546 249.966C217.426 249.389 219.031 259.92 220.563 263.661C224.611 273.544 233.565 274.378 237.258 269.833C230.53 284.175 221.31 285.461 216.251 281.495C211.929 278.107 212.198 270.619 201.692 273.577C197.202 274.841 194.597 274.201 195.064 269.052C195.757 261.414 198.331 250.504 207.546 249.966Z" fill="#3C0008"/>
<path d="M207.546 249.966C217.426 249.389 219.031 259.92 220.563 263.661C224.611 273.544 233.565 274.378 237.258 269.833C230.53 284.175 221.31 285.461 216.251 281.495C211.929 278.107 212.198 270.619 201.692 273.577C197.202 274.841 194.597 274.201 195.064 269.052C195.757 261.414 198.331 250.504 207.546 249.966Z" stroke="#F3F3F3" stroke-miterlimit="10" stroke-linecap="round" stroke-linejoin="round"/>
<path d="M184.612 288.771C183.984 293.013 177.303 301.142 184.733 310.206C187.767 313.907 192.496 316.091 197.278 316.257C183.236 327.006 161.278 309.751 161.771 295.437C162.135 284.811 174.562 276.937 179.236 278.362C182.962 279.499 185.123 285.334 184.612 288.771Z" fill="#3C0008"/>
<path d="M184.612 288.771C183.984 293.013 177.303 301.142 184.733 310.206C187.767 313.907 192.496 316.091 197.278 316.257C183.236 327.006 161.278 309.751 161.771 295.437C162.135 284.811 174.562 276.937 179.236 278.362C182.962 279.499 185.123 285.334 184.612 288.771Z" stroke="#F3F3F3" stroke-miterlimit="10" stroke-linecap="round" stroke-linejoin="round"/>
<path d="M110.96 162.023C107.047 160.102 103.822 155.411 105.723 151.488C98.1956 154.788 95.2875 164.045 99.6041 171.06C104.245 178.602 114.977 180.246 116.49 194.226C116.738 196.515 117.319 197.427 119.686 196.87C127.174 195.103 135.784 192.843 135.524 184.043C134.949 164.604 116.039 164.516 110.96 162.023Z" fill="#3C0008"/>
<path d="M110.96 162.023C107.047 160.102 103.822 155.411 105.723 151.488C98.1956 154.788 95.2875 164.045 99.6041 171.06C104.245 178.602 114.977 180.246 116.49 194.226C116.738 196.515 117.319 197.427 119.686 196.87C127.174 195.103 135.784 192.843 135.524 184.043C134.949 164.604 116.039 164.516 110.96 162.023Z" stroke="#F3F3F3" stroke-miterlimit="10" stroke-linecap="round" stroke-linejoin="round"/>
<path d="M91.5686 204.074C82.0934 200.861 79.0407 210.507 71.7698 211.951C67.3474 212.83 62.5303 209.555 61.7224 205.119C59.2188 209.826 59.2655 215.796 61.842 220.463C68.7697 233.009 81.6608 227.05 88.0553 228.598C94.4336 230.14 95.0544 235.473 97.5948 234.677C99.8552 233.968 108.141 209.694 91.5686 204.074Z" fill="#3C0008"/>
<path d="M91.5686 204.074C82.0934 200.861 79.0407 210.507 71.7698 211.951C67.3474 212.83 62.5303 209.555 61.7224 205.119C59.2188 209.826 59.2655 215.796 61.842 220.463C68.7697 233.009 81.6608 227.05 88.0553 228.598C94.4336 230.14 95.0544 235.473 97.5948 234.677C99.8552 233.968 108.141 209.694 91.5686 204.074Z" stroke="#F3F3F3" stroke-miterlimit="10" stroke-linecap="round" stroke-linejoin="round"/>
<path d="M91.7961 252.518C81.9 252.378 80.7613 262.969 79.3954 266.774C75.7866 276.826 66.8782 278.054 62.9895 273.676C70.3428 287.708 79.6092 288.586 84.49 284.4C88.658 280.825 88.0583 273.356 98.6851 275.848C103.227 276.913 105.801 276.159 105.107 271.036C104.078 263.435 101.026 252.649 91.7961 252.518Z" fill="#3C0008"/>
<path d="M91.7961 252.518C81.9 252.378 80.7613 262.969 79.3954 266.774C75.7866 276.826 66.8782 278.054 62.9895 273.676C70.3428 287.708 79.6092 288.586 84.49 284.4C88.658 280.825 88.0583 273.356 98.6851 275.848C103.227 276.913 105.801 276.159 105.107 271.036C104.078 263.435 101.026 252.649 91.7961 252.518Z" stroke="#F3F3F3" stroke-miterlimit="10" stroke-linecap="round" stroke-linejoin="round"/>
<path d="M116.418 290.275C117.233 294.485 124.266 302.312 117.243 311.694C114.375 315.525 109.747 317.916 104.976 318.293C119.479 328.412 140.654 310.206 139.531 295.927C138.699 285.328 125.938 278.009 121.33 279.639C117.659 280.939 115.757 286.864 116.418 290.275Z" fill="#3C0008"/>
<path d="M116.418 290.275C117.233 294.485 124.266 302.312 117.243 311.694C114.375 315.525 109.747 317.916 104.976 318.293C119.479 328.412 140.654 310.206 139.531 295.927C138.699 285.328 125.938 278.009 121.33 279.639C117.659 280.939 115.757 286.864 116.418 290.275Z" stroke="#F3F3F3" stroke-miterlimit="10" stroke-linecap="round" stroke-linejoin="round"/>
<path d="M147.006 130.435C155.373 150.361 162.93 170.626 169.652 191.163C167.162 190.234 157.747 189.894 148.322 190.082C138.899 190.31 129.508 191.064 127.061 192.102C132.871 171.289 139.528 150.711 147.006 130.435Z" fill="#3C0008"/>
<path d="M147.006 130.435C155.373 150.361 162.93 170.626 169.652 191.163C167.162 190.234 157.747 189.894 148.322 190.082C138.899 190.31 129.508 191.064 127.061 192.102C132.871 171.289 139.528 150.711 147.006 130.435Z" stroke="#F3F3F3" stroke-miterlimit="10" stroke-linecap="round" stroke-linejoin="round"/>
<path d="M227.543 167.088C224.236 177.012 213.264 186.573 198.91 217.115C200.213 214.341 188.539 202.078 183.687 198.322C181.778 196.845 178.286 195.548 176.903 193.619C173.932 189.477 185.458 185.861 188.479 184.351C201.212 177.986 214.259 172.22 227.543 167.088Z" fill="#3C0008"/>
<path d="M227.543 167.088C224.236 177.012 213.264 186.573 198.91 217.115C200.213 214.341 188.539 202.078 183.687 198.322C181.778 196.845 178.286 195.548 176.903 193.619C173.932 189.477 185.458 185.861 188.479 184.351C201.212 177.986 214.259 172.22 227.543 167.088Z" stroke="#F3F3F3" stroke-miterlimit="10" stroke-linecap="round" stroke-linejoin="round"/>
<path d="M68.164 170.603C71.9063 180.371 83.2893 189.44 98.9752 219.319C97.551 216.605 108.673 203.84 113.356 199.873C115.197 198.313 118.629 196.864 119.925 194.876C122.71 190.607 111.037 187.502 107.951 186.127C94.9501 180.33 81.6622 175.144 68.164 170.603Z" fill="#3C0008"/>
<path d="M68.164 170.603C71.9063 180.371 83.2893 189.44 98.9752 219.319C97.551 216.605 108.673 203.84 113.356 199.873C115.197 198.313 118.629 196.864 119.925 194.876C122.71 190.607 111.037 187.502 107.951 186.127C94.9501 180.33 81.6622 175.144 68.164 170.603Z" stroke="#F3F3F3" stroke-miterlimit="10" stroke-linecap="round" stroke-linejoin="round"/>
<path d="M256.209 242.874C238.165 249.326 219.661 254.498 200.886 258.336C207.909 243.265 199.605 229.414 202.961 226.158C205.075 224.107 216.225 230.035 218.986 231.03C220.501 231.576 254.685 243.418 256.209 242.874Z" fill="#3C0008"/>
<path d="M256.209 242.874C238.165 249.326 219.661 254.498 200.886 258.336C207.909 243.265 199.605 229.414 202.961 226.158C205.075 224.107 216.225 230.035 218.986 231.03C220.501 231.576 254.685 243.418 256.209 242.874Z" stroke="#F3F3F3" stroke-miterlimit="10" stroke-linecap="round" stroke-linejoin="round"/>
<path d="M42.8676 247.579C61.1794 253.23 79.8923 257.581 98.8189 260.587C91.1378 245.841 98.8234 231.637 95.3271 228.532C93.1245 226.576 82.2466 232.99 79.532 234.106C78.0426 234.717 44.4143 248.055 42.8676 247.579Z" fill="#3C0008"/>
<path d="M42.8676 247.579C61.1794 253.23 79.8923 257.581 98.8189 260.587C91.1378 245.841 98.8234 231.637 95.3271 228.532C93.1245 226.576 82.2466 232.99 79.532 234.106C78.0426 234.717 44.4143 248.055 42.8676 247.579Z" stroke="#F3F3F3" stroke-miterlimit="10" stroke-linecap="round" stroke-linejoin="round"/>
<path d="M225.409 317.767C208.461 308.44 191.842 298.512 175.593 288.01C181.362 283.279 187.072 278.473 192.718 273.597C201.132 266.33 196.698 263.94 220.405 308.384C221.457 310.355 224.506 315.465 225.409 317.767Z" fill="#3C0008"/>
<path d="M225.409 317.767C208.461 308.44 191.842 298.512 175.593 288.01C181.362 283.279 187.072 278.473 192.718 273.597C201.132 266.33 196.698 263.94 220.405 308.384C221.457 310.355 224.506 315.465 225.409 317.767Z" stroke="#F3F3F3" stroke-miterlimit="10" stroke-linecap="round" stroke-linejoin="round"/>
<path d="M76.9393 321.041C93.4605 310.976 109.626 300.325 125.395 289.117C119.423 284.645 113.507 280.096 107.651 275.473C98.9261 268.584 103.249 266.001 81.5252 311.447C80.5616 313.462 77.74 318.702 76.9393 321.041Z" fill="#3C0008"/>
<path d="M76.9393 321.041C93.4605 310.976 109.626 300.325 125.395 289.117C119.423 284.645 113.507 280.096 107.651 275.473C98.9261 268.584 103.249 266.001 81.5252 311.447C80.5616 313.462 77.74 318.702 76.9393 321.041Z" stroke="#F3F3F3" stroke-miterlimit="10" stroke-linecap="round" stroke-linejoin="round"/>
<path d="M151.633 340.22C156.715 324.004 161.274 307.624 165.299 291.114C161.247 291.634 155.913 291.967 150.571 292.085C145.23 292.203 139.887 292.105 135.816 291.764C140.565 308.08 145.841 324.244 151.633 340.22Z" fill="#3C0008"/>
<path d="M151.633 340.22C156.715 324.004 161.274 307.624 165.299 291.114C161.247 291.634 155.913 291.967 150.571 292.085C145.23 292.203 139.887 292.105 135.816 291.764C140.565 308.08 145.841 324.244 151.633 340.22Z" stroke="#F3F3F3" stroke-miterlimit="10" stroke-linecap="round" stroke-linejoin="round"/>
<path d="M188.149 202.31C200.876 190.029 214.453 178.983 227.543 167.089" stroke="#F3F3F3" stroke-miterlimit="10" stroke-linecap="round" stroke-linejoin="round"/>
<path d="M109.074 204.054C95.8168 192.346 81.7666 181.909 68.164 170.603" stroke="#F3F3F3" stroke-miterlimit="10" stroke-linecap="round" stroke-linejoin="round"/>
<path d="M203.72 242.008C222.225 242.185 237.705 242.695 256.209 242.874" stroke="#F3F3F3" stroke-miterlimit="10" stroke-linecap="round" stroke-linejoin="round"/>
<path d="M95.2669 244.4C76.7886 245.393 61.3459 246.584 42.8676 247.579" stroke="#F3F3F3" stroke-miterlimit="10" stroke-linecap="round" stroke-linejoin="round"/>
<path d="M187.113 278.396C200.801 291.803 212.29 303.802 225.409 317.767" stroke="#F3F3F3" stroke-miterlimit="10" stroke-linecap="round" stroke-linejoin="round"/>
<path d="M113.462 280.021C100.379 294.018 89.4292 306.512 76.9393 321.041" stroke="#F3F3F3" stroke-miterlimit="10" stroke-linecap="round" stroke-linejoin="round"/>
<path d="M147.006 130.435L148.322 190.082" stroke="#F3F3F3" stroke-miterlimit="10" stroke-linecap="round" stroke-linejoin="round"/>
<path d="M151.633 340.22L150.571 292.085" stroke="#F3F3F3" stroke-miterlimit="10" stroke-linecap="round" stroke-linejoin="round"/>
<path d="M147.997 175.37L165.386 178.491" stroke="#F3F3F3" stroke-miterlimit="10" stroke-linecap="round" stroke-linejoin="round"/>
<path d="M147.853 168.846L163.348 172.676" stroke="#F3F3F3" stroke-miterlimit="10" stroke-linecap="round" stroke-linejoin="round"/>
<path d="M147.72 162.789L160.942 165.982" stroke="#F3F3F3" stroke-miterlimit="10" stroke-linecap="round" stroke-linejoin="round"/>
<path d="M147.61 157.786L158.43 159.192" stroke="#F3F3F3" stroke-miterlimit="10" stroke-linecap="round" stroke-linejoin="round"/>
<path d="M147.522 153.814L156.763 154.785" stroke="#F3F3F3" stroke-miterlimit="10" stroke-linecap="round" stroke-linejoin="round"/>
<path d="M147.432 149.739L155.157 150.614" stroke="#F3F3F3" stroke-miterlimit="10" stroke-linecap="round" stroke-linejoin="round"/>
<path d="M147.332 145.207L153.42 146.182" stroke="#F3F3F3" stroke-miterlimit="10" stroke-linecap="round" stroke-linejoin="round"/>
<path d="M147.241 141.061L151.879 142.304" stroke="#F3F3F3" stroke-miterlimit="10" stroke-linecap="round" stroke-linejoin="round"/>
<path d="M147.162 137.487L150.211 138.183" stroke="#F3F3F3" stroke-miterlimit="10" stroke-linecap="round" stroke-linejoin="round"/>
<path d="M148.114 180.658L167.254 183.958" stroke="#F3F3F3" stroke-miterlimit="10" stroke-linecap="round" stroke-linejoin="round"/>
<path d="M193.402 197.35L201.884 210.984" stroke="#F3F3F3" stroke-miterlimit="10" stroke-linecap="round" stroke-linejoin="round"/>
<path d="M197.412 193.678L204.504 205.887" stroke="#F3F3F3" stroke-miterlimit="10" stroke-linecap="round" stroke-linejoin="round"/>
<path d="M200.987 190.472L207.277 200.788" stroke="#F3F3F3" stroke-miterlimit="10" stroke-linecap="round" stroke-linejoin="round"/>
<path d="M203.961 187.84L209.75 196.484" stroke="#F3F3F3" stroke-miterlimit="10" stroke-linecap="round" stroke-linejoin="round"/>
<path d="M207.535 184.706L212.433 192.04" stroke="#F3F3F3" stroke-miterlimit="10" stroke-linecap="round" stroke-linejoin="round"/>
<path d="M210.492 182.128L214.817 188.266" stroke="#F3F3F3" stroke-miterlimit="10" stroke-linecap="round" stroke-linejoin="round"/>
<path d="M213.447 179.554L217.289 184.491" stroke="#F3F3F3" stroke-miterlimit="10" stroke-linecap="round" stroke-linejoin="round"/>
<path d="M216.166 177.185L219.349 181.41" stroke="#F3F3F3" stroke-miterlimit="10" stroke-linecap="round" stroke-linejoin="round"/>
<path d="M218.649 175.011L221.322 178.463" stroke="#F3F3F3" stroke-miterlimit="10" stroke-linecap="round" stroke-linejoin="round"/>
<path d="M221.087 172.866L223.274 175.462" stroke="#F3F3F3" stroke-miterlimit="10" stroke-linecap="round" stroke-linejoin="round"/>
<path d="M223.261 170.937L224.81 172.932" stroke="#F3F3F3" stroke-miterlimit="10" stroke-linecap="round" stroke-linejoin="round"/>
<path d="M210.966 242.095L207.069 257.02" stroke="#F3F3F3" stroke-miterlimit="10" stroke-linecap="round" stroke-linejoin="round"/>
<path d="M215.519 242.166L212.649 255.748" stroke="#F3F3F3" stroke-miterlimit="10" stroke-linecap="round" stroke-linejoin="round"/>
<path d="M220.219 242.25L217.871 254.482" stroke="#F3F3F3" stroke-miterlimit="10" stroke-linecap="round" stroke-linejoin="round"/>
<path d="M224.322 242.327L222.353 253.335" stroke="#F3F3F3" stroke-miterlimit="10" stroke-linecap="round" stroke-linejoin="round"/>
<path d="M229.203 242.345L227.693 251.898" stroke="#F3F3F3" stroke-miterlimit="10" stroke-linecap="round" stroke-linejoin="round"/>
<path d="M234.244 242.527L232.988 250.395" stroke="#F3F3F3" stroke-miterlimit="10" stroke-linecap="round" stroke-linejoin="round"/>
<path d="M238.428 242.608L237.542 249.041" stroke="#F3F3F3" stroke-miterlimit="10" stroke-linecap="round" stroke-linejoin="round"/>
<path d="M242.637 242.685L241.997 247.66" stroke="#F3F3F3" stroke-miterlimit="10" stroke-linecap="round" stroke-linejoin="round"/>
<path d="M246.45 242.749L245.873 246.412" stroke="#F3F3F3" stroke-miterlimit="10" stroke-linecap="round" stroke-linejoin="round"/>
<path d="M250.077 242.801L249.538 245.193" stroke="#F3F3F3" stroke-miterlimit="10" stroke-linecap="round" stroke-linejoin="round"/>
<path d="M191.936 283.152L203.93 276.823" stroke="#F3F3F3" stroke-miterlimit="10" stroke-linecap="round" stroke-linejoin="round"/>
<path d="M194.688 285.894L205.873 280.498" stroke="#F3F3F3" stroke-miterlimit="10" stroke-linecap="round" stroke-linejoin="round"/>
<path d="M198.143 289.486L207.996 284.604" stroke="#F3F3F3" stroke-miterlimit="10" stroke-linecap="round" stroke-linejoin="round"/>
<path d="M201.649 292.923L210.371 289.217" stroke="#F3F3F3" stroke-miterlimit="10" stroke-linecap="round" stroke-linejoin="round"/>
<path d="M204.465 295.805L212.215 292.789" stroke="#F3F3F3" stroke-miterlimit="10" stroke-linecap="round" stroke-linejoin="round"/>
<path d="M206.957 298.37L213.785 295.816" stroke="#F3F3F3" stroke-miterlimit="10" stroke-linecap="round" stroke-linejoin="round"/>
<path d="M209.629 301.14L215.521 299.142" stroke="#F3F3F3" stroke-miterlimit="10" stroke-linecap="round" stroke-linejoin="round"/>
<path d="M211.917 303.522L217.107 302.162" stroke="#F3F3F3" stroke-miterlimit="10" stroke-linecap="round" stroke-linejoin="round"/>
<path d="M214.589 306.32L218.76 305.29" stroke="#F3F3F3" stroke-miterlimit="10" stroke-linecap="round" stroke-linejoin="round"/>
<path d="M216.989 308.844L220.405 308.384" stroke="#F3F3F3" stroke-miterlimit="10" stroke-linecap="round" stroke-linejoin="round"/>
<path d="M219.316 311.3L221.71 310.724" stroke="#F3F3F3" stroke-miterlimit="10" stroke-linecap="round" stroke-linejoin="round"/>
<path d="M150.731 299.306L164.017 296.295" stroke="#F3F3F3" stroke-miterlimit="10" stroke-linecap="round" stroke-linejoin="round"/>
<path d="M150.819 303.313L163.009 300.267" stroke="#F3F3F3" stroke-miterlimit="10" stroke-linecap="round" stroke-linejoin="round"/>
<path d="M150.906 307.255L162.042 303.999" stroke="#F3F3F3" stroke-miterlimit="10" stroke-linecap="round" stroke-linejoin="round"/>
<path d="M150.985 310.842L161.064 307.703" stroke="#F3F3F3" stroke-miterlimit="10" stroke-linecap="round" stroke-linejoin="round"/>
<path d="M151.08 315.131L159.844 312.217" stroke="#F3F3F3" stroke-miterlimit="10" stroke-linecap="round" stroke-linejoin="round"/>
<path d="M151.174 319.404L158.557 316.873" stroke="#F3F3F3" stroke-miterlimit="10" stroke-linecap="round" stroke-linejoin="round"/>
<path d="M151.265 323.517L157.342 321.169" stroke="#F3F3F3" stroke-miterlimit="10" stroke-linecap="round" stroke-linejoin="round"/>
<path d="M151.342 327.044L156.179 325.194" stroke="#F3F3F3" stroke-miterlimit="10" stroke-linecap="round" stroke-linejoin="round"/>
<path d="M151.426 330.855L154.927 329.444" stroke="#F3F3F3" stroke-miterlimit="10" stroke-linecap="round" stroke-linejoin="round"/>
<path d="M107.963 285.953L120.236 292.754" stroke="#F3F3F3" stroke-miterlimit="10" stroke-linecap="round" stroke-linejoin="round"/>
<path d="M104.658 289.561L115.933 295.743" stroke="#F3F3F3" stroke-miterlimit="10" stroke-linecap="round" stroke-linejoin="round"/>
<path d="M101.682 292.842L112.662 297.988" stroke="#F3F3F3" stroke-miterlimit="10" stroke-linecap="round" stroke-linejoin="round"/>
<path d="M98.7306 296.123L108.911 300.533" stroke="#F3F3F3" stroke-miterlimit="10" stroke-linecap="round" stroke-linejoin="round"/>
<path d="M96.0243 299.154L105.342 302.926" stroke="#F3F3F3" stroke-miterlimit="10" stroke-linecap="round" stroke-linejoin="round"/>
<path d="M93.5193 301.979L101.555 305.437" stroke="#F3F3F3" stroke-miterlimit="10" stroke-linecap="round" stroke-linejoin="round"/>
<path d="M90.996 304.842L97.6319 308.007" stroke="#F3F3F3" stroke-miterlimit="10" stroke-linecap="round" stroke-linejoin="round"/>
<path d="M87.9363 308.336L93.5439 310.65" stroke="#F3F3F3" stroke-miterlimit="10" stroke-linecap="round" stroke-linejoin="round"/>
<path d="M84.9579 311.756L89.2583 313.385" stroke="#F3F3F3" stroke-miterlimit="10" stroke-linecap="round" stroke-linejoin="round"/>
<path d="M82.3099 314.811L85.0522 316.033" stroke="#F3F3F3" stroke-miterlimit="10" stroke-linecap="round" stroke-linejoin="round"/>
<path d="M50.4173 247.153L51.7505 250.207" stroke="#F3F3F3" stroke-miterlimit="10" stroke-linecap="round" stroke-linejoin="round"/>
<path d="M53.566 246.965L55.9895 251.386" stroke="#F3F3F3" stroke-miterlimit="10" stroke-linecap="round" stroke-linejoin="round"/>
<path d="M57.4721 246.727L60.754 252.651" stroke="#F3F3F3" stroke-miterlimit="10" stroke-linecap="round" stroke-linejoin="round"/>
<path d="M61.7536 246.458L65.8613 253.938" stroke="#F3F3F3" stroke-miterlimit="10" stroke-linecap="round" stroke-linejoin="round"/>
<path d="M66.4653 246.157L70.8664 255.132" stroke="#F3F3F3" stroke-miterlimit="10" stroke-linecap="round" stroke-linejoin="round"/>
<path d="M71.7274 245.818L76.4883 256.394" stroke="#F3F3F3" stroke-miterlimit="10" stroke-linecap="round" stroke-linejoin="round"/>
<path d="M76.2205 245.531L81.6808 257.485" stroke="#F3F3F3" stroke-miterlimit="10" stroke-linecap="round" stroke-linejoin="round"/>
<path d="M81.41 245.206L87.5413 258.631" stroke="#F3F3F3" stroke-miterlimit="10" stroke-linecap="round" stroke-linejoin="round"/>
<path d="M86.9826 244.868L93.1865 259.651" stroke="#F3F3F3" stroke-miterlimit="10" stroke-linecap="round" stroke-linejoin="round"/>
<path d="M71.6474 177.086L74.1379 175.498" stroke="#F3F3F3" stroke-miterlimit="10" stroke-linecap="round" stroke-linejoin="round"/>
<path d="M73.6096 179.932L77.255 178.01" stroke="#F3F3F3" stroke-miterlimit="10" stroke-linecap="round" stroke-linejoin="round"/>
<path d="M75.9434 183.142L80.5631 180.656" stroke="#F3F3F3" stroke-miterlimit="10" stroke-linecap="round" stroke-linejoin="round"/>
<path d="M77.9959 185.926L83.4075 182.922" stroke="#F3F3F3" stroke-miterlimit="10" stroke-linecap="round" stroke-linejoin="round"/>
<path d="M80.1683 188.903L86.4062 185.31" stroke="#F3F3F3" stroke-miterlimit="10" stroke-linecap="round" stroke-linejoin="round"/>
<path d="M82.5725 192.279L89.955 188.142" stroke="#F3F3F3" stroke-miterlimit="10" stroke-linecap="round" stroke-linejoin="round"/>
<path d="M84.8523 195.59L93.1047 190.672" stroke="#F3F3F3" stroke-miterlimit="10" stroke-linecap="round" stroke-linejoin="round"/>
<path d="M87.3797 199.405L96.4052 193.348" stroke="#F3F3F3" stroke-miterlimit="10" stroke-linecap="round" stroke-linejoin="round"/>
<path d="M89.8955 203.376L99.8752 196.201" stroke="#F3F3F3" stroke-miterlimit="10" stroke-linecap="round" stroke-linejoin="round"/>
<path d="M92.132 207.061L102.547 198.433" stroke="#F3F3F3" stroke-miterlimit="10" stroke-linecap="round" stroke-linejoin="round"/>
<path d="M94.4354 211.018L105.684 201.101" stroke="#F3F3F3" stroke-miterlimit="10" stroke-linecap="round" stroke-linejoin="round"/>
<path d="M148.196 184.378C221.256 182.72 230.19 294.82 150.657 295.947C71.1517 298.327 75.1351 185.943 148.196 184.378Z" fill="#3C0008"/>
<path d="M148.196 184.378C221.256 182.72 230.19 294.82 150.657 295.947C71.1517 298.327 75.1351 185.943 148.196 184.378Z" stroke="#F3F3F3" stroke-miterlimit="10" stroke-linecap="round" stroke-linejoin="round"/>
<path d="M148.831 213.15C152.092 213.077 155.298 210.473 156.149 205.397C160.083 204.568 161.457 220.915 149.008 221.175C136.559 221.464 137.212 205.072 141.178 205.728C142.251 210.761 145.569 213.221 148.831 213.15Z" fill="#3C0008"/>
<path d="M148.831 213.15C152.092 213.077 155.298 210.473 156.149 205.397C160.083 204.568 161.457 220.915 149.008 221.175C136.559 221.464 137.212 205.072 141.178 205.728C142.251 210.761 145.569 213.221 148.831 213.15Z" stroke="#F3F3F3" stroke-miterlimit="10" stroke-linecap="round" stroke-linejoin="round"/>
<path d="M157.58 250.805C159.725 251.535 160.008 255.89 154.542 255.872C152.48 255.865 151.865 258.843 149.839 258.892C147.814 258.933 147.068 255.984 145.008 256.082C139.55 256.341 139.639 251.978 141.751 251.154" stroke="#F3F3F3" stroke-miterlimit="10" stroke-linecap="round" stroke-linejoin="round"/>
<path d="M156.451 235.385C154.436 239.565 153.974 244.473 155.176 248.957" stroke="#F3F3F3" stroke-miterlimit="10" stroke-linecap="round" stroke-linejoin="round"/>
<path d="M142.199 235.699C144.397 239.786 145.074 244.67 144.071 249.202" stroke="#F3F3F3" stroke-miterlimit="10" stroke-linecap="round" stroke-linejoin="round"/>
<path d="M158.329 230.381C165.789 220.613 176.582 218.085 188.702 227.36" stroke="#F3F3F3" stroke-miterlimit="10" stroke-linecap="round" stroke-linejoin="round"/>
<path d="M140.103 230.783C132.219 221.353 121.325 219.303 109.626 229.103" stroke="#F3F3F3" stroke-miterlimit="10" stroke-linecap="round" stroke-linejoin="round"/>
<path d="M135.664 268.049C141.567 271.388 143.527 259.453 150.014 266.83C156.17 259.174 158.655 271.011 164.405 267.416" stroke="#F3F3F3" stroke-miterlimit="10" stroke-linecap="round" stroke-linejoin="round"/>
<path d="M155.91 268.254C152.604 269.127 153.255 271.037 150.109 271.104C146.964 271.176 147.53 269.239 144.187 268.512" stroke="#F3F3F3" stroke-miterlimit="10" stroke-linecap="round" stroke-linejoin="round"/>
<path d="M155.602 272.94C154.492 274.467 152.188 275.407 150.204 275.451C148.221 275.495 145.879 274.657 144.702 273.181" stroke="#F3F3F3" stroke-miterlimit="10" stroke-linecap="round" stroke-linejoin="round"/>
<path d="M156.917 284.389C156.048 282.017 153.173 280.885 150.326 280.948C147.478 281.011 144.657 282.268 143.894 284.676" stroke="#F3F3F3" stroke-miterlimit="10" stroke-linecap="round" stroke-linejoin="round"/>
<path d="M183.514 270.111C189.716 268.058 189.833 256.334 181.389 255.734C170.116 254.935 173.282 273.5 183.514 270.111Z" fill="#3C0008"/>
<path d="M183.514 270.111C189.716 268.058 189.833 256.334 181.389 255.734C170.116 254.935 173.282 273.5 183.514 270.111Z" stroke="#F3F3F3" stroke-miterlimit="10" stroke-linecap="round" stroke-linejoin="round"/>
<path d="M116.693 271.585C110.406 269.807 109.772 258.099 118.181 257.128C129.409 255.832 127.065 274.519 116.693 271.585Z" fill="#3C0008"/>
<path d="M116.693 271.585C110.406 269.807 109.772 258.099 118.181 257.128C129.409 255.832 127.065 274.519 116.693 271.585Z" stroke="#F3F3F3" stroke-miterlimit="10" stroke-linecap="round" stroke-linejoin="round"/>
<path d="M175.871 238.591C175.738 238.607 175.592 238.623 175.445 238.627L175.871 238.591Z" fill="#3C0008"/>
<path d="M186.495 234.102C182.863 236.916 179.423 238.179 176.244 238.542C176.111 238.559 175.991 238.575 175.871 238.591C175.725 238.607 175.579 238.624 175.445 238.627L175.365 238.628C171.024 238.924 167.209 237.661 164.091 236.597C168.588 229.469 178.986 232.254 186.495 234.102Z" fill="#3C0008"/>
<path d="M179.633 232.586C180.74 236.216 178.715 238.128 176.244 238.542C176.111 238.559 175.991 238.575 175.871 238.591C175.805 238.592 175.752 238.607 175.698 238.608C175.578 238.61 175.472 238.626 175.365 238.628C172.246 238.697 168.93 236.503 170.427 232.402L170.412 232.336C171.168 232.159 171.953 232.062 172.752 232.018L172.754 232.098C172.306 233.535 173.132 235.93 175.697 235.54C177.545 235.246 177.909 233.611 177.279 232.251L177.291 232.198C178.08 232.287 178.856 232.417 179.633 232.559V232.586Z" fill="#3C0008"/>
<path d="M172.752 232.018C174.217 231.932 175.753 232.005 177.291 232.198L177.279 232.251C177.909 233.611 177.545 235.246 175.697 235.54C173.132 235.93 172.306 233.535 172.754 232.098L172.752 232.018Z" fill="#3C0008"/>
<path d="M170.427 232.404C167.57 240.231 182.227 241.091 179.633 232.589" stroke="#F3F3F3" stroke-miterlimit="10" stroke-linecap="round" stroke-linejoin="round"/>
<path d="M164.086 236.597C169.665 238.501 177.494 241.063 186.495 234.101" stroke="#F3F3F3" stroke-miterlimit="10" stroke-linecap="round" stroke-linejoin="round"/>
<path d="M172.755 232.098C172.307 233.529 173.133 235.925 175.701 235.534C177.551 235.251 177.904 233.618 177.284 232.253" stroke="#F3F3F3" stroke-miterlimit="10" stroke-linecap="round" stroke-linejoin="round"/>
<path d="M188.147 234.499C183.558 231.487 183.473 227.648 175.597 227.035C170.143 226.611 166.465 231.671 164.086 236.597C168.922 228.933 180.589 232.729 188.147 234.499Z" fill="#3C0008"/>
<path d="M188.147 234.499C183.558 231.487 183.473 227.648 175.597 227.035C170.143 226.611 166.465 231.671 164.086 236.597C168.922 228.933 180.589 232.729 188.147 234.499Z" stroke="#F3F3F3" stroke-miterlimit="10" stroke-linecap="round" stroke-linejoin="round"/>
<path d="M123.366 239.775C123.219 239.778 123.072 239.768 122.938 239.758L123.366 239.775Z" fill="#3C0008"/>
<path d="M112.128 235.742C115.88 238.393 119.372 239.503 122.565 239.726C122.698 239.737 122.818 239.747 122.938 239.758C123.086 239.768 123.233 239.778 123.366 239.775L123.446 239.774C127.796 239.878 131.552 238.448 134.619 237.247C129.812 230.324 119.548 233.565 112.128 235.742Z" fill="#3C0008"/>
<path d="M118.916 233.925C117.97 237.6 120.077 239.421 122.565 239.726C122.698 239.737 122.818 239.747 122.938 239.758C123.005 239.756 123.059 239.769 123.112 239.767C123.232 239.765 123.339 239.776 123.446 239.773C126.565 239.705 129.781 237.366 128.105 233.336L128.117 233.269C127.354 233.126 126.565 233.063 125.765 233.054L125.767 233.134C126.278 234.55 125.558 236.98 122.978 236.703C121.12 236.491 120.684 234.873 121.254 233.487L121.239 233.434C120.455 233.558 119.685 233.722 118.915 233.899L118.916 233.925Z" fill="#3C0008"/>
<path d="M125.765 233.054C124.297 233.033 122.767 233.173 121.239 233.434L121.254 233.487C120.684 234.873 121.12 236.49 122.978 236.703C125.558 236.979 126.278 234.55 125.767 233.134L125.765 233.054Z" fill="#3C0008"/>
<path d="M128.106 233.337C131.305 241.031 116.699 242.536 118.915 233.928" stroke="#F3F3F3" stroke-miterlimit="10" stroke-linecap="round" stroke-linejoin="round"/>
<path d="M134.625 237.246C129.134 239.395 121.426 242.3 112.127 235.741" stroke="#F3F3F3" stroke-miterlimit="10" stroke-linecap="round" stroke-linejoin="round"/>
<path d="M125.766 233.134C126.276 234.544 125.556 236.974 122.974 236.696C121.113 236.496 120.689 234.88 121.248 233.488" stroke="#F3F3F3" stroke-miterlimit="10" stroke-linecap="round" stroke-linejoin="round"/>
<path d="M110.494 236.211C114.945 233.001 114.861 229.161 122.704 228.202C128.133 227.538 132.031 232.43 134.625 237.246C129.456 229.804 117.967 234.11 110.494 236.211Z" fill="#3C0008"/>
<path d="M110.494 236.211C114.945 233.001 114.861 229.161 122.704 228.202C128.133 227.538 132.031 232.43 134.625 237.246C129.456 229.804 117.967 234.11 110.494 236.211Z" stroke="#F3F3F3" stroke-miterlimit="10" stroke-linecap="round" stroke-linejoin="round"/>
<path d="M166.784 241.3C171.319 244.379 177.776 244.291 182.227 241.091" stroke="#F3F3F3" stroke-miterlimit="10" stroke-linecap="round" stroke-linejoin="round"/>
<path d="M132.136 242.064C127.741 245.34 121.286 245.537 116.699 242.536" stroke="#F3F3F3" stroke-miterlimit="10" stroke-linecap="round" stroke-linejoin="round"/>
<path d="M173.427 195.537C182.41 198.198 189.837 205.604 192.525 214.579" stroke="#F3F3F3" stroke-miterlimit="10" stroke-linecap="round" stroke-linejoin="round"/>
<path d="M123.482 196.638C114.625 199.693 107.533 207.419 105.243 216.504" stroke="#F3F3F3" stroke-miterlimit="10" stroke-linecap="round" stroke-linejoin="round"/>
<path d="M199.121 229.505C201.385 237.357 201.355 245.856 199.035 253.692" stroke="#F3F3F3" stroke-miterlimit="10" stroke-linecap="round" stroke-linejoin="round"/>
<path d="M99.311 231.706C97.3955 239.65 97.8 248.139 100.462 255.865" stroke="#F3F3F3" stroke-miterlimit="10" stroke-linecap="round" stroke-linejoin="round"/>
<path d="M164.654 290.225C170.209 289.36 175.457 286.623 179.346 282.563" stroke="#F3F3F3" stroke-miterlimit="10" stroke-linecap="round" stroke-linejoin="round"/>
<path d="M136.421 290.848C130.833 290.228 125.471 287.726 121.406 283.841" stroke="#F3F3F3" stroke-miterlimit="10" stroke-linecap="round" stroke-linejoin="round"/>
<path d="M245.199 51.4525C244.538 53.9957 244.351 56.6605 244.654 59.2691C251.258 52.4512 245.811 48.8704 254.722 71.0126C254.777 59.2312 254.589 47.4485 254.16 35.6738C254.025 35.6367 232.766 35.4908 220.031 36.1664C239.422 43.2886 233.722 39.9854 227.64 48.2962C230.788 48.0174 233.627 45.885 236.786 45.9914C235.62 50.0808 233.215 56.2606 232.694 59.8303C236.753 56.6427 241.139 54.6402 245.199 51.4525Z" fill="#3C0008"/>
<path d="M245.199 51.4525C244.538 53.9957 244.351 56.6605 244.654 59.2691C251.258 52.4512 245.811 48.8704 254.722 71.0126C254.777 59.2312 254.589 47.4485 254.16 35.6738C254.025 35.6368 232.766 35.4908 220.031 36.1664C239.422 43.2886 233.722 39.9854 227.64 48.2962C230.788 48.0174 233.627 45.885 236.786 45.9914C235.62 50.0808 233.215 56.2606 232.694 59.8303C236.753 56.6427 241.139 54.6402 245.199 51.4525Z" stroke="#F3F3F3" stroke-miterlimit="10" stroke-linecap="round" stroke-linejoin="round"/>
<path d="M45.428 55.8581C46.2008 58.3697 46.5036 61.0237 46.3171 63.6431C39.419 57.123 44.7033 53.3055 36.7754 75.8191C36.2023 64.0516 35.8706 52.272 35.78 40.4898C35.913 40.4469 57.1459 39.3638 69.8972 39.4773C50.8392 47.4475 56.3877 43.8963 62.831 51.9308C59.6725 51.7911 56.7433 49.7859 53.5911 50.0314C54.9367 54.0654 57.6132 60.1332 58.2899 63.6765C54.094 60.6709 49.6245 58.8637 45.428 55.8581Z" fill="#3C0008"/>
<path d="M45.428 55.8582C46.2008 58.3697 46.5036 61.0237 46.3171 63.6431C39.419 57.1229 44.7033 53.3055 36.7754 75.8191C36.2023 64.0516 35.8706 52.272 35.78 40.4898C35.913 40.4469 57.1459 39.3638 69.8972 39.4773C50.8392 47.4475 56.3877 43.8963 62.831 51.9308C59.6725 51.7911 56.7433 49.7859 53.5911 50.0314C54.9367 54.0654 57.6132 60.1332 58.2899 63.6765C54.094 60.6709 49.6245 58.8637 45.428 55.8582Z" stroke="#F3F3F3" stroke-miterlimit="10" stroke-linecap="round" stroke-linejoin="round"/>
<path d="M52.9756 398.092C53.6369 395.55 53.8224 392.886 53.5206 390.277C46.9166 397.094 52.3641 400.676 43.4513 378.532C43.3976 390.315 43.5856 402.098 44.0145 413.872C44.1492 413.908 65.4092 414.055 78.1431 413.38C58.7523 406.257 64.452 409.561 70.5348 401.248C67.3855 401.528 64.5476 403.661 61.3877 403.555C62.554 399.465 64.9605 393.286 65.4803 389.716C61.4209 392.902 57.0355 394.906 52.9756 398.092Z" fill="#3C0008" stroke="#F3F3F3" stroke-miterlimit="10" stroke-linecap="round" stroke-linejoin="round"/>
<path d="M252.747 393.687C251.974 391.176 251.67 388.523 251.858 385.903C258.755 392.422 253.471 396.24 261.398 373.726C261.973 385.495 262.304 397.274 262.395 409.056C262.261 409.098 241.029 410.182 228.277 410.069C247.335 402.099 241.787 405.65 235.344 397.614C238.501 397.755 241.432 399.76 244.583 399.515C243.238 395.481 240.562 389.413 239.885 385.87C244.08 388.874 248.55 390.683 252.747 393.687Z" fill="#3C0008"/>
<path d="M252.747 393.687C251.974 391.176 251.67 388.523 251.858 385.903C258.755 392.422 253.471 396.24 261.398 373.726C261.973 385.495 262.304 397.274 262.395 409.056C262.261 409.098 241.029 410.182 228.277 410.069C247.335 402.099 241.787 405.65 235.344 397.614C238.501 397.755 241.432 399.76 244.583 399.515C243.238 395.481 240.562 389.413 239.885 385.87C244.08 388.874 248.55 390.683 252.747 393.687Z" stroke="#F3F3F3" stroke-miterlimit="10" stroke-linecap="round" stroke-linejoin="round"/>
<mask id="mask1_139_967" style="mask-type:luminance" maskUnits="userSpaceOnUse" x="23" y="23" width="253" height="437">
<path d="M33.2997 459.952L23.7999 29.1915L265.631 23.8582L275.131 454.618L33.2997 459.952Z" fill="white"/>
</mask>
<g mask="url(#mask1_139_967)">
<path d="M78.0026 122.735C81.9288 118.563 89.2888 119.853 92.4483 124.477C97.7093 132.175 88.545 146.366 81.3977 138.205C73.5366 149.743 63.8296 145.869 62.2824 140.582C61.9425 143.214 49.3681 155.785 40.7105 142.167C36.3542 145.351 32.7546 148.337 27.1825 148.978C22.0006 149.574 16.6885 145.732 15.6293 140.625C12.5086 142.366 8.47689 142.342 5.37756 140.565C-5.25907 134.462 2.88636 119.093 13.4187 123.724C8.15138 116.716 25.5126 99.5042 31.8186 110.624C34.1231 95.7095 63.8435 102.351 60.7795 118.83C64.9513 110.342 77.8991 113.268 78.0026 122.735Z" fill="#3C0008"/>
</g>
<mask id="mask2_139_967" style="mask-type:luminance" maskUnits="userSpaceOnUse" x="23" y="23" width="253" height="437">
<path d="M33.2997 459.952L23.7999 29.1915L265.631 23.8582L275.131 454.618L33.2997 459.952Z" fill="white"/>
</mask>
<g mask="url(#mask2_139_967)">
<path d="M78.0026 122.735C81.9288 118.563 89.2888 119.853 92.4483 124.477C97.7093 132.175 88.545 146.366 81.3977 138.205C73.5366 149.743 63.8296 145.869 62.2824 140.582C61.9425 143.214 49.3681 155.785 40.7105 142.167C36.3542 145.351 32.7546 148.337 27.1825 148.978C22.0006 149.574 16.6885 145.732 15.6293 140.625C12.5086 142.366 8.47689 142.342 5.37756 140.565C-5.25907 134.462 2.88636 119.093 13.4187 123.724C8.15138 116.716 25.5126 99.5042 31.8186 110.624C34.1231 95.7095 63.8435 102.351 60.7795 118.83C64.9513 110.342 77.8991 113.268 78.0026 122.735Z" stroke="#F3F3F3" stroke-miterlimit="10" stroke-linecap="round" stroke-linejoin="round"/>
</g>
<mask id="mask3_139_967" style="mask-type:luminance" maskUnits="userSpaceOnUse" x="23" y="23" width="253" height="437">
<path d="M33.2997 459.952L23.7999 29.1915L265.631 23.8582L275.131 454.618L33.2997 459.952Z" fill="white"/>
</mask>
<g mask="url(#mask3_139_967)">
<path d="M51.0305 121.341C50.4839 112.411 38.9887 113.748 38.803 124.153C38.5955 135.788 58.5203 131.029 60.8251 118.558" stroke="#F3F3F3" stroke-miterlimit="10" stroke-linecap="round" stroke-linejoin="round"/>
</g>
<mask id="mask4_139_967" style="mask-type:luminance" maskUnits="userSpaceOnUse" x="23" y="23" width="253" height="437">
<path d="M33.2997 459.952L23.7999 29.1915L265.631 23.8582L275.131 454.618L33.2997 459.952Z" fill="white"/>
</mask>
<g mask="url(#mask4_139_967)">
<path d="M85.2906 133.238C87.1906 128.202 82.6206 127.8 81.2374 128.382C77.171 130.096 78.5865 135.93 81.3977 138.205" stroke="#F3F3F3" stroke-miterlimit="10" stroke-linecap="round" stroke-linejoin="round"/>
</g>
<mask id="mask5_139_967" style="mask-type:luminance" maskUnits="userSpaceOnUse" x="23" y="23" width="253" height="437">
<path d="M33.2997 459.952L23.7999 29.1915L265.631 23.8582L275.131 454.618L33.2997 459.952Z" fill="white"/>
</mask>
<g mask="url(#mask5_139_967)">
<path d="M34.1376 140.04C30.7618 142.853 27.4588 137.986 28.7288 135.023C32.7147 125.72 46.8384 134.69 40.7105 142.167" stroke="#F3F3F3" stroke-miterlimit="10" stroke-linecap="round" stroke-linejoin="round"/>
</g>
<mask id="mask6_139_967" style="mask-type:luminance" maskUnits="userSpaceOnUse" x="23" y="23" width="253" height="437">
<path d="M33.2997 459.952L23.7999 29.1915L265.631 23.8582L275.131 454.618L33.2997 459.952Z" fill="white"/>
</mask>
<g mask="url(#mask6_139_967)">
<path d="M24.6266 115.407C20.9384 117.453 24.3217 123.884 29.1929 121.247C31.8962 119.783 34.2221 115.553 31.8186 110.624" stroke="#F3F3F3" stroke-miterlimit="10" stroke-linecap="round" stroke-linejoin="round"/>
</g>
<mask id="mask7_139_967" style="mask-type:luminance" maskUnits="userSpaceOnUse" x="23" y="23" width="253" height="437">
<path d="M33.2997 459.952L23.7999 29.1915L265.631 23.8582L275.131 454.618L33.2997 459.952Z" fill="white"/>
</mask>
<g mask="url(#mask7_139_967)">
<path d="M292.055 344.029C295.981 339.858 303.341 341.149 306.501 345.771C311.761 353.47 302.597 367.661 295.45 359.499C287.589 371.038 277.882 367.163 276.334 361.878C275.995 364.508 263.421 377.079 254.762 363.463C250.406 366.645 246.807 369.631 241.235 370.272C236.053 370.868 230.741 367.027 229.681 361.921C226.561 363.661 222.529 363.638 219.429 361.859C208.793 355.756 216.938 340.387 227.47 345.019C222.204 338.011 239.565 320.8 245.871 331.918C248.175 317.003 277.895 323.646 274.831 340.124C279.004 331.638 291.952 334.563 292.055 344.029Z" fill="#3C0008"/>
</g>
<mask id="mask8_139_967" style="mask-type:luminance" maskUnits="userSpaceOnUse" x="23" y="23" width="253" height="437">
<path d="M33.2997 459.952L23.7999 29.1915L265.631 23.8582L275.131 454.618L33.2997 459.952Z" fill="white"/>
</mask>
<g mask="url(#mask8_139_967)">
<path d="M292.055 344.029C295.981 339.858 303.341 341.149 306.501 345.771C311.761 353.47 302.597 367.661 295.45 359.499C287.589 371.038 277.882 367.163 276.334 361.878C275.995 364.508 263.421 377.079 254.762 363.463C250.406 366.645 246.807 369.631 241.235 370.272C236.053 370.868 230.741 367.027 229.681 361.921C226.561 363.661 222.529 363.638 219.429 361.859C208.793 355.756 216.938 340.387 227.47 345.019C222.204 338.011 239.565 320.8 245.871 331.918C248.175 317.003 277.895 323.646 274.831 340.124C279.004 331.638 291.952 334.563 292.055 344.029Z" stroke="#F3F3F3" stroke-miterlimit="10" stroke-linecap="round" stroke-linejoin="round"/>
</g>
<mask id="mask9_139_967" style="mask-type:luminance" maskUnits="userSpaceOnUse" x="23" y="23" width="253" height="437">
<path d="M33.2997 459.952L23.7999 29.1915L265.631 23.8582L275.131 454.618L33.2997 459.952Z" fill="white"/>
</mask>
<g mask="url(#mask9_139_967)">
<path d="M265.083 342.635C264.537 333.705 253.041 335.043 252.855 345.447C252.648 357.082 272.573 352.323 274.877 339.854" stroke="#F3F3F3" stroke-miterlimit="10" stroke-linecap="round" stroke-linejoin="round"/>
</g>
<mask id="mask10_139_967" style="mask-type:luminance" maskUnits="userSpaceOnUse" x="23" y="23" width="253" height="437">
<path d="M33.2997 459.952L23.7999 29.1915L265.631 23.8582L275.131 454.618L33.2997 459.952Z" fill="white"/>
</mask>
<g mask="url(#mask10_139_967)">
<path d="M225.831 352.538C227.611 356.096 232.794 354.449 232.48 350.436C232.275 347.824 229.036 345.908 227.47 345.018" stroke="#F3F3F3" stroke-miterlimit="10" stroke-linecap="round" stroke-linejoin="round"/>
</g>
<mask id="mask11_139_967" style="mask-type:luminance" maskUnits="userSpaceOnUse" x="23" y="23" width="253" height="437">
<path d="M33.2997 459.952L23.7999 29.1915L265.631 23.8582L275.131 454.618L33.2997 459.952Z" fill="white"/>
</mask>
<g mask="url(#mask11_139_967)">
<path d="M248.19 361.335C244.814 364.147 241.511 359.282 242.781 356.317C246.767 347.014 260.891 355.986 254.762 363.463" stroke="#F3F3F3" stroke-miterlimit="10" stroke-linecap="round" stroke-linejoin="round"/>
</g>
<mask id="mask12_139_967" style="mask-type:luminance" maskUnits="userSpaceOnUse" x="24" y="24" width="252" height="437">
<path d="M33.4998 460.094L24 29.3333L265.831 24L275.331 454.76L33.4998 460.094Z" fill="white"/>
</mask>
<g mask="url(#mask12_139_967)">
<path d="M238.679 336.702C234.991 338.747 238.374 345.178 243.245 342.541C245.948 341.077 248.274 336.849 245.871 331.918" stroke="#F3F3F3" stroke-miterlimit="10" stroke-linecap="round" stroke-linejoin="round"/>
</g>
<path d="M33.2997 459.952L23.7999 29.1915L265.631 23.8582L275.131 454.618L33.2997 459.952Z" stroke="#F3F3F3" stroke-width="3" stroke-miterlimit="10" stroke-linecap="round" stroke-linejoin="round"/>
<path d="M48.4006 443.095L64.5524 442.739" stroke="#F3F3F3" stroke-miterlimit="10" stroke-linecap="round" stroke-linejoin="round"/>
<path d="M243.15 438.8L259.301 438.444" stroke="#F3F3F3" stroke-miterlimit="10" stroke-linecap="round" stroke-linejoin="round"/>
<path d="M122.72 434.304L122.966 445.453L120.567 445.506L120.321 434.356L122.72 434.304ZM126.638 434.153L126.653 434.825L116.415 435.051L116.4 434.379L126.638 434.153ZM126.652 434.777L126.693 436.664L126.533 436.652L126.529 436.476C126.518 435.975 126.36 435.584 126.055 435.302C125.761 435.01 125.363 434.864 124.861 434.864L124.86 434.816L126.652 434.777ZM126.632 433.865L126.642 434.329L124.686 434.196C124.921 434.191 125.166 434.17 125.421 434.132C125.687 434.094 125.931 434.051 126.154 434.004C126.377 433.956 126.536 433.91 126.632 433.865ZM120.589 444.337L120.615 445.505L119.335 445.533L119.331 445.373C119.331 445.373 119.363 445.372 119.427 445.371C119.502 445.369 119.539 445.368 119.539 445.368C119.817 445.362 120.049 445.261 120.237 445.065C120.435 444.858 120.536 444.616 120.541 444.338L120.589 444.337ZM122.892 444.286L122.94 444.285C122.957 444.562 123.064 444.8 123.26 444.998C123.467 445.186 123.709 445.276 123.986 445.27C123.986 445.27 124.018 445.27 124.082 445.268C124.157 445.267 124.194 445.266 124.194 445.266L124.198 445.426L122.918 445.454L122.892 444.286ZM118.19 434.964L118.191 435.012C117.7 435.033 117.309 435.196 117.017 435.502C116.736 435.796 116.6 436.194 116.611 436.695L116.615 436.871L116.456 436.89L116.414 435.003L118.19 434.964ZM116.394 434.091C116.502 434.131 116.663 434.17 116.877 434.208C117.102 434.246 117.348 434.278 117.615 434.304C117.882 434.33 118.128 434.341 118.352 434.336L116.404 434.555L116.394 434.091ZM138.731 433.902L138.978 445.1L136.579 445.153L136.332 433.955L138.731 433.902ZM131.149 434.07L131.396 445.267L128.997 445.32L128.75 434.123L131.149 434.07ZM136.592 439.231L136.607 439.919L131.121 440.04L131.105 439.352L136.592 439.231ZM129.019 444.151L129.045 445.319L127.765 445.347L127.761 445.187C127.761 445.187 127.793 445.186 127.857 445.185C127.932 445.183 127.969 445.182 127.969 445.182C128.247 445.176 128.479 445.075 128.667 444.879C128.865 444.672 128.966 444.43 128.971 444.152L129.019 444.151ZM128.823 435.289L128.775 435.29C128.759 435.013 128.647 434.781 128.44 434.593C128.243 434.395 128.007 434.299 127.729 434.305C127.729 434.305 127.692 434.306 127.617 434.308C127.553 434.309 127.521 434.31 127.521 434.31L127.518 434.15L128.798 434.121L128.823 435.289ZM131.322 444.1L131.37 444.099C131.387 444.376 131.494 444.614 131.69 444.812C131.897 445 132.139 445.09 132.416 445.084C132.416 445.084 132.448 445.084 132.512 445.082C132.576 445.081 132.613 445.08 132.624 445.08L132.628 445.24L131.348 445.268L131.322 444.1ZM131.127 435.238L131.101 434.071L132.381 434.042L132.384 434.202C132.374 434.203 132.336 434.203 132.272 434.205C132.208 434.206 132.176 434.207 132.176 434.207C131.899 434.213 131.661 434.32 131.463 434.527C131.275 434.723 131.179 434.96 131.175 435.237L131.127 435.238ZM136.601 443.984L136.627 445.152L135.347 445.18L135.343 445.02C135.354 445.02 135.391 445.019 135.455 445.017C135.519 445.016 135.551 445.015 135.551 445.015C135.829 445.009 136.067 444.908 136.265 444.711C136.463 444.504 136.559 444.262 136.553 443.985L136.601 443.984ZM136.405 435.122L136.358 435.123C136.351 434.846 136.245 434.613 136.038 434.426C135.831 434.228 135.589 434.132 135.312 434.138C135.312 434.138 135.28 434.139 135.216 434.14C135.152 434.141 135.114 434.142 135.104 434.142L135.1 433.982L136.38 433.954L136.405 435.122ZM138.904 443.933L138.952 443.932C138.969 444.209 139.076 444.447 139.272 444.645C139.479 444.833 139.721 444.923 139.998 444.917C139.998 444.917 140.03 444.916 140.094 444.915C140.169 444.913 140.206 444.913 140.206 444.913L140.21 445.073L138.93 445.101L138.904 443.933ZM138.709 435.071L138.683 433.903L139.963 433.875L139.966 434.035C139.966 434.035 139.929 434.036 139.854 434.038C139.79 434.039 139.758 434.04 139.758 434.04C139.481 434.046 139.243 434.153 139.045 434.36C138.858 434.556 138.761 434.793 138.757 435.07L138.709 435.071ZM144.943 433.765L145.189 444.963L142.79 445.016L142.543 433.818L144.943 433.765ZM149.397 444.182L149.796 444.861L145.141 444.964L145.126 444.276L149.397 444.182ZM148.691 439.028L148.706 439.7L145.027 439.781L145.012 439.109L148.691 439.028ZM149.357 433.668L149.373 434.356L144.91 434.454L144.895 433.766L149.357 433.668ZM150.508 441.565L149.844 444.86L146.709 444.929L147.27 444.229C147.803 444.217 148.27 444.105 148.671 443.894C149.071 443.671 149.411 443.365 149.691 442.975C149.97 442.574 150.189 442.105 150.348 441.568L150.508 441.565ZM148.706 439.668L148.739 441.204L148.579 441.207L148.577 441.079C148.568 440.685 148.433 440.362 148.171 440.112C147.91 439.861 147.581 439.735 147.187 439.733L147.186 439.701L148.706 439.668ZM148.658 437.524L148.692 439.06L147.173 439.094L147.172 439.062C147.566 439.042 147.888 438.902 148.139 438.64C148.389 438.368 148.51 438.034 148.501 437.64L148.498 437.528L148.658 437.524ZM149.372 434.308L149.413 436.179L149.253 436.183L149.249 435.991C149.238 435.5 149.08 435.109 148.775 434.817C148.48 434.525 148.082 434.379 147.581 434.379L147.58 434.347L149.372 434.308ZM149.351 433.38L149.361 433.844L147.406 433.711C147.641 433.706 147.885 433.685 148.141 433.647C148.407 433.609 148.651 433.566 148.874 433.519C149.097 433.471 149.256 433.425 149.351 433.38ZM142.812 443.847L142.838 445.015L141.558 445.043L141.555 444.883C141.555 444.883 141.587 444.882 141.651 444.881C141.725 444.879 141.763 444.878 141.763 444.878C142.04 444.872 142.273 444.771 142.46 444.575C142.658 444.368 142.76 444.125 142.764 443.848L142.812 443.847ZM142.617 434.985L142.569 434.986C142.552 434.709 142.44 434.477 142.233 434.289C142.037 434.091 141.8 433.995 141.523 434.001C141.523 434.001 141.486 434.002 141.411 434.003C141.347 434.005 141.315 434.005 141.315 434.005L141.311 433.846L142.591 433.817L142.617 434.985ZM159.172 433.228C159.385 433.223 159.646 433.228 159.956 433.242C160.276 433.257 160.602 433.281 160.934 433.317C161.276 433.341 161.57 433.372 161.816 433.409C162.073 433.436 162.25 433.469 162.347 433.51L162.202 435.673L162.042 435.677C162.03 435.122 161.812 434.684 161.389 434.363C160.976 434.031 160.429 433.872 159.746 433.887C159.128 433.901 158.63 434.061 158.252 434.368C157.886 434.675 157.696 435.042 157.685 435.469C157.681 435.789 157.788 436.064 158.007 436.294C158.225 436.524 158.502 436.737 158.837 436.932L161.936 438.848C162.433 439.114 162.809 439.469 163.064 439.911C163.33 440.354 163.453 440.874 163.434 441.472C163.404 442.518 163.022 443.342 162.289 443.945C161.555 444.538 160.548 444.848 159.268 444.876C158.799 444.887 158.34 444.854 157.89 444.779C157.451 444.714 157.059 444.616 156.715 444.484C156.371 444.343 156.095 444.173 155.888 443.975C155.797 443.742 155.754 443.46 155.757 443.129C155.76 442.798 155.801 442.461 155.879 442.118C155.967 441.775 156.078 441.49 156.212 441.263L156.356 441.26C156.325 441.804 156.432 442.309 156.677 442.773C156.933 443.226 157.293 443.586 157.757 443.853C158.233 444.11 158.79 444.225 159.43 444.201C160.133 444.174 160.673 443.986 161.049 443.637C161.426 443.276 161.608 442.851 161.597 442.36C161.59 442.03 161.482 441.733 161.274 441.471C161.076 441.209 160.75 440.96 160.297 440.725L157.457 438.931C156.885 438.623 156.465 438.222 156.198 437.726C155.931 437.231 155.818 436.689 155.858 436.101C155.899 435.546 156.054 435.057 156.322 434.635C156.59 434.202 156.961 433.863 157.436 433.618C157.921 433.373 158.5 433.242 159.172 433.228ZM162.358 433.317L162.334 433.654L160.446 433.696L160.439 433.36L162.358 433.317ZM167.917 433.259L168.072 440.297C168.089 441.054 168.226 441.707 168.483 442.256C168.752 442.805 169.118 443.224 169.583 443.513C170.059 443.801 170.617 443.938 171.257 443.924C171.907 443.909 172.464 443.758 172.927 443.471C173.401 443.172 173.76 442.759 174.004 442.231C174.249 441.703 174.363 441.081 174.347 440.367L174.187 433.12L175.339 433.095L175.497 440.245C175.516 441.12 175.346 441.881 174.987 442.529C174.638 443.177 174.122 443.684 173.436 444.052C172.761 444.408 171.938 444.597 170.968 444.618C169.838 444.643 168.879 444.494 168.093 444.17C167.307 443.835 166.71 443.357 166.301 442.737C165.903 442.105 165.695 441.352 165.675 440.478L165.517 433.312L167.917 433.259ZM165.565 433.311L165.587 434.27L165.539 434.271C165.533 434.037 165.444 433.847 165.27 433.701C165.107 433.555 164.908 433.485 164.673 433.49C164.673 433.49 164.63 433.491 164.545 433.493C164.46 433.495 164.417 433.496 164.417 433.496L164.414 433.336L165.565 433.311ZM169.021 433.234L169.024 433.394C169.024 433.394 168.981 433.395 168.896 433.397C168.811 433.399 168.768 433.4 168.768 433.4C168.534 433.405 168.333 433.484 168.165 433.637C168.009 433.79 167.933 433.984 167.938 434.219H167.906L167.885 433.259L169.021 433.234ZM174.235 433.119L174.256 434.079L174.208 434.08C174.203 433.846 174.114 433.656 173.94 433.51C173.777 433.364 173.578 433.294 173.343 433.299C173.343 433.299 173.3 433.3 173.215 433.302C173.13 433.304 173.087 433.305 173.087 433.305L173.084 433.145L174.235 433.119ZM176.443 433.071L176.446 433.231C176.446 433.231 176.404 433.232 176.318 433.234C176.233 433.235 176.19 433.236 176.19 433.236C175.956 433.242 175.755 433.321 175.587 433.474C175.431 433.627 175.355 433.82 175.36 434.055L175.328 434.056L175.307 433.096L176.443 433.071ZM178.447 432.786L188.867 442.287L189.101 444.218L178.682 434.734L178.447 432.786ZM178.754 443.086L178.779 444.222L177.451 444.251L177.448 444.091C177.448 444.091 177.496 444.09 177.592 444.088C177.688 444.086 177.741 444.085 177.752 444.085C178.018 444.079 178.246 443.978 178.433 443.781C178.621 443.585 178.712 443.354 178.706 443.087L178.754 443.086ZM180.993 443.037C180.999 443.303 181.1 443.531 181.297 443.718C181.493 443.906 181.724 443.997 181.991 443.991C182.001 443.991 182.055 443.99 182.151 443.988C182.247 443.985 182.295 443.984 182.295 443.984L182.298 444.144L180.971 444.174L180.945 443.038L180.993 443.037ZM178.447 432.786L180.804 435.183L181.019 444.173L178.731 444.223L178.523 434.785C178.51 434.188 178.467 433.709 178.395 433.348C178.323 432.976 178.287 432.79 178.287 432.79L178.447 432.786ZM188.802 432.798L189.008 442.172C189.017 442.566 189.041 442.923 189.08 443.243C189.119 443.551 189.156 443.79 189.192 443.96C189.228 444.13 189.245 444.215 189.245 444.215L189.101 444.218L186.725 441.678L186.53 432.848L188.802 432.798ZM190.081 432.77L190.085 432.93C190.085 432.93 190.037 432.931 189.941 432.933C189.845 432.935 189.797 432.936 189.797 432.936C189.53 432.942 189.303 433.043 189.115 433.239C188.927 433.425 188.831 433.656 188.827 433.934L188.779 433.935L188.754 432.799L190.081 432.77ZM185.234 432.877L186.562 432.848L186.587 433.983L186.555 433.984C186.538 433.707 186.432 433.48 186.236 433.303C186.051 433.115 185.819 433.024 185.542 433.03C185.542 433.03 185.494 433.031 185.398 433.033C185.302 433.035 185.249 433.037 185.238 433.037L185.234 432.877Z" fill="#3C0008"/>
<path d="M136.764 33.8046L142.384 42.0707L140.26 42.1175L134.664 33.8509L136.764 33.8046ZM136.246 41.3538C136.177 41.4674 136.155 41.5839 136.182 41.7034C136.216 41.8146 136.283 41.9092 136.38 41.987C136.478 42.0569 136.579 42.0907 136.683 42.0884C136.683 42.0884 136.707 42.0879 136.755 42.0868C136.811 42.0856 136.839 42.085 136.839 42.085L136.841 42.2049L133.878 42.2703L133.875 42.1503L134.043 42.1466C134.299 42.141 134.53 42.0639 134.734 41.9153C134.939 41.7668 135.107 41.599 135.239 41.4121L136.246 41.3538ZM137.645 37.8422L138.243 38.2851L135.677 42.2306L134.67 42.2528L137.645 37.8422ZM139.689 41.2779L141.838 41.2785C141.97 41.4597 142.146 41.6198 142.365 41.759C142.584 41.8903 142.817 41.9531 143.065 41.9477L143.233 41.9439L143.236 42.0639L139.145 42.1541L139.142 42.0342C139.142 42.0342 139.166 42.0336 139.214 42.0326C139.27 42.0313 139.298 42.0307 139.298 42.0307C139.458 42.0272 139.588 41.9443 139.689 41.7821C139.797 41.6196 139.797 41.4516 139.689 41.2779ZM137.892 33.7797L137.894 33.8997C137.894 33.8997 137.87 33.9002 137.822 33.9013C137.774 33.9023 137.75 33.9029 137.75 33.9029C137.638 33.9053 137.535 33.9476 137.441 34.0297C137.355 34.1036 137.301 34.2009 137.279 34.3214C137.258 34.4339 137.28 34.5454 137.347 34.656L135.211 34.6671C135.079 34.4859 134.903 34.3258 134.684 34.1866C134.473 34.0472 134.239 33.9803 133.983 33.986L133.815 33.9897L133.813 33.8697L137.892 33.7797ZM141.851 33.6924L139.042 38.0634L138.538 37.4864L140.831 33.7149L141.851 33.6924ZM142.667 33.6744L142.669 33.7944L142.501 33.7981C142.253 33.8036 142.023 33.8807 141.81 34.0294C141.605 34.1779 141.437 34.3457 141.305 34.5327L140.298 34.5909C140.368 34.4773 140.385 34.3649 140.351 34.2536C140.324 34.1342 140.266 34.0394 140.176 33.9694C140.087 33.8914 139.986 33.8536 139.874 33.856C139.874 33.856 139.85 33.8566 139.802 33.8576C139.754 33.8587 139.73 33.8592 139.73 33.8592L139.715 33.7395L142.667 33.6744ZM145.948 33.6021L146.133 42L144.334 42.0397L144.148 33.6417L145.948 33.6021ZM144.35 41.1631L144.37 42.0389L143.41 42.0601L143.407 41.9401C143.407 41.9401 143.431 41.9396 143.479 41.9385C143.535 41.9373 143.563 41.9367 143.563 41.9367C143.771 41.9321 143.945 41.8562 144.086 41.7091C144.235 41.5538 144.311 41.372 144.314 41.1639L144.35 41.1631ZM144.204 34.5167L144.168 34.5175C144.155 34.3098 144.071 34.1356 143.916 33.995C143.769 33.8462 143.591 33.7741 143.383 33.7787C143.383 33.7787 143.355 33.7793 143.299 33.7805C143.251 33.7816 143.227 33.7821 143.227 33.7821L143.225 33.6621L144.184 33.641L144.204 34.5167ZM146.078 41.125L146.114 41.1242C146.126 41.332 146.206 41.5103 146.354 41.6591C146.509 41.7997 146.69 41.8677 146.898 41.8631C146.898 41.8631 146.922 41.8626 146.97 41.8615C147.018 41.8605 147.046 41.8599 147.054 41.8597L147.057 41.9796L146.097 42.0008L146.078 41.125ZM145.931 34.4786L145.912 33.6029L146.872 33.5817L146.874 33.7017C146.866 33.7018 146.838 33.7025 146.79 33.7035C146.742 33.7046 146.718 33.7051 146.718 33.7051C146.51 33.7097 146.332 33.7896 146.184 33.9449C146.043 34.0921 145.971 34.2697 145.967 34.4778L145.931 34.4786ZM150.144 33.5095L155.763 41.7756L153.64 41.8225L148.044 33.5558L150.144 33.5095ZM149.626 41.0588C149.556 41.1723 149.535 41.2888 149.562 41.4083C149.596 41.5196 149.662 41.6141 149.76 41.692C149.857 41.7618 149.958 41.7956 150.062 41.7933C150.062 41.7933 150.086 41.7928 150.134 41.7918C150.19 41.7905 150.218 41.7899 150.218 41.7899L150.221 41.9099L147.257 41.9752L147.255 41.8553L147.423 41.8515C147.679 41.8459 147.909 41.7688 148.114 41.6203C148.319 41.4717 148.487 41.3039 148.619 41.117L149.626 41.0588ZM151.025 37.5471L151.623 37.99L149.057 41.9355L148.049 41.9578L151.025 37.5471ZM153.069 40.9828L155.218 40.9835C155.35 41.1646 155.525 41.3248 155.744 41.464C155.963 41.5952 156.197 41.6581 156.445 41.6526L156.613 41.6489L156.615 41.7688L152.524 41.8591L152.522 41.7391C152.522 41.7391 152.546 41.7386 152.594 41.7375C152.65 41.7363 152.678 41.7357 152.678 41.7357C152.837 41.7321 152.968 41.6492 153.068 41.487C153.177 41.3246 153.177 41.1565 153.069 40.9828ZM151.271 33.4847L151.274 33.6046C151.274 33.6046 151.25 33.6052 151.202 33.6062C151.154 33.6073 151.13 33.6078 151.13 33.6078C151.018 33.6103 150.915 33.6526 150.821 33.7347C150.734 33.8086 150.68 33.9058 150.659 34.0263C150.638 34.1388 150.66 34.2503 150.726 34.3609L148.59 34.372C148.458 34.1909 148.283 34.0307 148.063 33.8915C147.852 33.7521 147.619 33.6852 147.363 33.6909L147.195 33.6946L147.192 33.5746L151.271 33.4847ZM155.23 33.3973L152.422 37.7683L151.917 37.1913L154.211 33.4198L155.23 33.3973ZM156.046 33.3794L156.049 33.4993L155.881 33.503C155.633 33.5085 155.402 33.5856 155.19 33.7343C154.985 33.8829 154.817 34.0506 154.685 34.2376L153.678 34.2958C153.747 34.1822 153.765 34.0698 153.73 33.9586C153.704 33.8391 153.646 33.7444 153.556 33.6743C153.466 33.5963 153.365 33.5585 153.253 33.561C153.253 33.561 153.229 33.5615 153.181 33.5626C153.133 33.5636 153.109 33.5642 153.109 33.5642L153.095 33.4444L156.046 33.3794Z" fill="#3C0008"/>
</g>
</g>
<defs>
<clipPath id="clip0_139_967">
<rect width="299" height="483" fill="white" transform="translate(0 0.340088)"/>
</clipPath>
</defs>
</svg>
