<svg width="367" height="520" viewBox="0 0 367 520" fill="none" xmlns="http://www.w3.org/2000/svg">
<g clip-path="url(#clip0_139_886)">
<mask id="mask0_139_886" style="mask-type:luminance" maskUnits="userSpaceOnUse" x="1" y="1" width="366" height="518">
<path d="M359.443 49.1781L92.4422 1.40891C88.093 0.630792 83.9365 3.52574 83.1583 7.87496L2.10587 460.908C1.32775 465.258 4.2227 469.414 8.57192 470.192L275.572 517.962C279.922 518.74 284.078 515.845 284.856 511.496L365.909 58.462C366.687 54.1128 363.792 49.9562 359.443 49.1781Z" fill="white"/>
</mask>
<g mask="url(#mask0_139_886)">
<path d="M0.696869 468.783L84.5661 0.0065918L367.32 50.5944L283.451 519.371L0.696869 468.783Z" fill="#3C0008"/>
<path d="M266.739 495.375L343.325 67.3067L101.278 24.002L24.6924 452.07L266.739 495.375Z" fill="#3C0008" stroke="#F3F3F3" stroke-width="4"/>
<path d="M27.0133 450.454L102.895 26.323L341.004 68.9233L265.122 493.054L27.0133 450.454Z" stroke="#F3F3F3" stroke-width="3" stroke-miterlimit="10" stroke-linecap="round" stroke-linejoin="round"/>
<path d="M247.22 52.1444C244.722 66.1014 231.385 75.3896 217.428 72.8926C203.472 70.3957 194.182 57.0591 196.679 43.1021L247.22 52.1444Z" fill="#3C0008"/>
<path d="M247.22 52.1444C244.722 66.1014 231.385 75.3896 217.428 72.8926C203.472 70.3957 194.182 57.0591 196.679 43.1021L247.22 52.1444Z" stroke="#F3F3F3" stroke-miterlimit="10" stroke-linecap="round" stroke-linejoin="round"/>
<path d="M270.941 460.532L32.8319 417.931L27.0133 450.454L265.122 493.054L270.941 460.532Z" fill="#3C0008"/>
<path d="M270.941 460.532L32.8319 417.931L27.0133 450.454L265.122 493.054L270.941 460.532Z" stroke="#F3F3F3" stroke-miterlimit="10" stroke-linecap="round" stroke-linejoin="round"/>
<path d="M302.512 231.728C284.297 235.061 266.49 242.579 248.904 248.382C265.399 332.747 286.529 312.062 209.399 269.043C202.531 279.59 200.472 291.426 195.511 302.848C183.226 331.123 174.748 335.619 167.438 354.788C160.689 323.041 154.985 290.304 151.95 257.99C128.91 266.989 105.647 275.413 82.1877 283.254C95.2826 263.21 110.006 243.824 123.936 224.351C109.041 213.662 95.4211 201.196 83.458 187.303C133.205 180.223 127.722 180.824 130.193 180.805C131.982 159.399 132.184 137.861 130.796 116.425C145.802 127.045 159.42 137.023 173.722 148.572C186.31 124.075 200.679 100.492 216.677 78.0732C220.368 104.162 223.658 130.497 227.424 156.576C247.799 149.545 268.275 143.277 288.65 136.247C277.892 153.271 266.552 171.023 255.558 187.896C274.311 202.373 285.444 215.299 302.512 231.728Z" stroke="#F3F3F3" stroke-miterlimit="10" stroke-linecap="round" stroke-linejoin="round"/>
<path d="M315.519 91.9321C314.367 94.2942 313.657 96.8694 313.438 99.4864C321.259 94.1092 316.628 89.5218 320.985 112.989C323.369 101.451 325.515 89.8642 327.423 78.2372C327.298 78.1741 306.487 73.8265 293.87 71.9702C311.47 82.7868 306.536 78.4216 298.93 85.3653C302.071 85.7146 305.276 84.1858 308.352 84.9149C306.4 88.6929 302.819 94.2749 301.604 97.6712C306.213 95.3492 310.908 94.2537 315.519 91.9321Z" fill="#3C0008"/>
<path d="M315.519 91.9321C314.367 94.2942 313.657 96.8694 313.438 99.4864C321.259 94.1092 316.628 89.5218 320.985 112.989C323.369 101.451 325.515 89.8642 327.423 78.2372C327.298 78.1741 306.487 73.8265 293.87 71.9702C311.47 82.7868 306.536 78.4216 298.93 85.3653C302.071 85.7146 305.276 84.1858 308.352 84.9149C306.4 88.6929 302.819 94.2749 301.604 97.6712C306.213 95.3492 310.908 94.2537 315.519 91.9321Z" stroke="#F3F3F3" stroke-miterlimit="10" stroke-linecap="round" stroke-linejoin="round"/>
<path d="M118.822 56.7408C119.083 59.3556 118.855 62.0171 118.154 64.5479C112.681 56.7922 118.616 54.0953 106.392 74.5962C108.158 62.9478 110.162 51.3353 112.404 39.7679C112.543 39.7521 133.57 42.8898 146.047 45.523C125.79 49.5665 131.931 47.1828 136.658 56.3329C133.589 55.5713 131.114 53.0264 127.976 52.6437C128.497 56.8641 129.921 63.3414 129.883 66.9485C126.365 63.1724 122.341 60.517 118.822 56.7408Z" fill="#3C0008"/>
<path d="M118.822 56.7408C119.083 59.3556 118.855 62.0171 118.154 64.5479C112.681 56.7922 118.616 54.0953 106.392 74.5962C108.158 62.9478 110.162 51.3353 112.404 39.7679C112.543 39.7521 133.57 42.8898 146.047 45.523C125.79 49.5665 131.931 47.1828 136.658 56.3329C133.589 55.5713 131.114 53.0264 127.976 52.6437C128.497 56.8641 129.921 63.3414 129.883 66.9485C126.365 63.1724 122.341 60.517 118.822 56.7408Z" stroke="#F3F3F3" stroke-miterlimit="10" stroke-linecap="round" stroke-linejoin="round"/>
<path d="M58.5347 393.708C59.6857 391.347 60.3946 388.772 60.6147 386.154C52.7929 391.531 57.4245 396.119 53.0671 372.651C50.6841 384.19 48.5381 395.777 46.6298 407.404C46.7548 407.465 67.5657 411.815 80.1817 413.671C62.5825 402.854 67.5163 407.219 75.1229 400.274C71.9805 399.926 68.7767 401.456 65.7003 400.726C67.6525 396.948 71.2336 391.366 72.4491 387.97C67.8398 390.29 63.1446 391.387 58.5347 393.708Z" fill="#3C0008" stroke="#F3F3F3" stroke-miterlimit="10" stroke-linecap="round" stroke-linejoin="round"/>
<path d="M255.231 428.899C254.97 426.286 255.197 423.624 255.899 421.093C261.371 428.848 255.437 431.546 267.66 411.044C265.895 422.693 263.891 434.306 261.649 445.873C261.51 445.887 240.483 442.751 228.005 440.118C248.263 436.075 242.122 438.458 237.396 429.307C240.463 430.069 242.938 432.615 246.076 432.997C245.555 428.777 244.132 422.3 244.169 418.693C247.688 422.467 251.712 425.124 255.231 428.899Z" fill="#3C0008"/>
<path d="M255.231 428.899C254.97 426.286 255.197 423.624 255.899 421.093C261.371 428.848 255.437 431.546 267.66 411.044C265.895 422.693 263.891 434.306 261.649 445.873C261.51 445.887 240.483 442.751 228.005 440.118C248.263 436.075 242.122 438.458 237.396 429.307C240.463 430.069 242.938 432.615 246.076 432.997C245.555 428.777 244.132 422.3 244.169 418.693C247.688 422.467 251.712 425.124 255.231 428.899Z" stroke="#F3F3F3" stroke-miterlimit="10" stroke-linecap="round" stroke-linejoin="round"/>
<path d="M157.286 409.047C167.134 410.809 166.912 414.667 172.323 368.208C172.504 366.651 166.919 366.417 164.945 366.24C163.033 365.722 157.712 364.005 157.343 365.528C146.309 410.981 147.44 407.285 157.286 409.047Z" fill="#3C0008"/>
<path d="M157.286 409.047C167.134 410.809 166.912 414.667 172.323 368.208C172.504 366.651 166.919 366.417 164.945 366.24C163.033 365.722 157.712 364.005 157.343 365.528C146.309 410.981 147.44 407.285 157.286 409.047Z" stroke="#F3F3F3" stroke-miterlimit="10" stroke-linecap="round" stroke-linejoin="round"/>
<path d="M205.595 360.537C212.098 358.887 212.836 356.233 211.6 350.707C211.19 348.875 209.614 342.43 207.614 341.545C204.752 340.281 195.811 353.703 194.581 356.96C192.237 363.167 201.116 361.672 205.595 360.537Z" fill="#3C0008"/>
<path d="M205.595 360.537C212.098 358.887 212.836 356.233 211.6 350.707C211.19 348.875 209.614 342.43 207.614 341.545C204.752 340.281 195.811 353.703 194.581 356.96C192.237 363.167 201.116 361.672 205.595 360.537Z" stroke="#F3F3F3" stroke-miterlimit="10" stroke-linecap="round" stroke-linejoin="round"/>
<path d="M128.795 346.796C123.267 342.994 123.495 340.249 126.57 335.495C127.59 333.918 131.303 328.419 133.486 328.282C136.608 328.089 140.341 343.779 140.366 347.26C140.413 353.895 132.601 349.414 128.795 346.796Z" fill="#3C0008"/>
<path d="M128.795 346.796C123.267 342.994 123.495 340.249 126.57 335.495C127.59 333.918 131.303 328.419 133.486 328.282C136.608 328.089 140.341 343.779 140.366 347.26C140.413 353.895 132.601 349.414 128.795 346.796Z" stroke="#F3F3F3" stroke-miterlimit="10" stroke-linecap="round" stroke-linejoin="round"/>
<path d="M154.731 423.328C166.175 425.396 177.887 426.037 182.26 423.792C191.258 419.172 170.27 406.205 167.622 405.462C164.318 404.536 160.473 406.483 154.095 403.87C150.574 402.427 149.921 402.19 148.836 402.101C143.107 401.638 100.726 413.766 154.731 423.328Z" fill="#3C0008"/>
<path d="M154.731 423.328C166.175 425.396 177.887 426.037 182.26 423.792C191.258 419.172 170.27 406.205 167.622 405.462C164.318 404.536 160.473 406.483 154.095 403.87C150.574 402.427 149.921 402.19 148.836 402.101C143.107 401.638 100.726 413.766 154.731 423.328Z" stroke="#F3F3F3" stroke-miterlimit="10" stroke-linecap="round" stroke-linejoin="round"/>
<path d="M180.748 418.091C174.168 420.496 164.687 420.595 155.513 418.955C146.342 417.313 137.482 413.933 132.144 409.395" fill="#3C0008"/>
<path d="M180.748 418.091C174.168 420.496 164.687 420.595 155.513 418.955C146.342 417.313 137.482 413.933 132.144 409.395" stroke="#F3F3F3" stroke-miterlimit="10" stroke-linecap="round" stroke-linejoin="round"/>
<path d="M172.158 415.135C166.939 415.563 161.581 415.288 156.337 414.35C151.095 413.412 145.973 411.812 141.227 409.601" fill="#3C0008"/>
<path d="M172.158 415.135C166.939 415.563 161.581 415.288 156.337 414.35C151.095 413.412 145.973 411.812 141.227 409.601" stroke="#F3F3F3" stroke-miterlimit="10" stroke-linecap="round" stroke-linejoin="round"/>
<path d="M159.281 397.895C162.987 398.36 167.275 399.915 170.877 398.303C173.516 397.123 174.288 393.161 171.698 391.346C170.418 390.447 169.329 390.44 160.83 389.24C152.442 387.419 151.419 387.048 149.907 387.447C146.847 388.252 146.199 392.236 148.263 394.257C151.085 397.019 155.646 397.046 159.281 397.895Z" fill="#3C0008"/>
<path d="M159.281 397.895C162.987 398.36 167.275 399.915 170.877 398.303C173.516 397.123 174.288 393.161 171.698 391.346C170.418 390.447 169.329 390.44 160.83 389.24C152.442 387.419 151.419 387.048 149.907 387.447C146.847 388.252 146.199 392.236 148.263 394.257C151.085 397.019 155.646 397.046 159.281 397.895Z" stroke="#F3F3F3" stroke-miterlimit="10" stroke-linecap="round" stroke-linejoin="round"/>
<path d="M161.26 386.837C164.965 387.302 169.253 388.859 172.856 387.245C175.494 386.065 176.267 382.103 173.677 380.288C172.396 379.39 171.307 379.383 162.808 378.182C154.42 376.362 153.398 375.991 151.885 376.389C148.826 377.194 148.177 381.178 150.242 383.2C153.063 385.963 157.624 385.989 161.26 386.837Z" fill="#3C0008"/>
<path d="M161.26 386.837C164.965 387.302 169.253 388.859 172.856 387.245C175.494 386.065 176.267 382.103 173.677 380.288C172.396 379.39 171.307 379.383 162.808 378.182C154.42 376.362 153.398 375.991 151.885 376.389C148.826 377.194 148.177 381.178 150.242 383.2C153.063 385.963 157.624 385.989 161.26 386.837Z" stroke="#F3F3F3" stroke-miterlimit="10" stroke-linecap="round" stroke-linejoin="round"/>
<path d="M163.938 371.868C185.257 375.674 209.436 363.494 213.202 331.186C209.094 329.463 190.978 325.729 172.775 322.472C154.574 319.216 136.287 316.437 131.836 316.628C124.166 348.238 142.622 368.046 163.938 371.868Z" fill="#3C0008"/>
<path d="M163.938 371.868C185.257 375.674 209.436 363.494 213.202 331.186C209.094 329.463 190.978 325.729 172.775 322.472C154.574 319.216 136.287 316.437 131.836 316.628C124.166 348.238 142.622 368.046 163.938 371.868Z" stroke="#F3F3F3" stroke-miterlimit="10" stroke-linecap="round" stroke-linejoin="round"/>
<path d="M170.865 333.152C172.11 333.375 173.164 334.661 175.661 337.3C186.712 348.984 187.536 348.745 184.491 351.871C182.99 353.414 168.058 362.793 165.637 362.369C163.221 361.928 152.468 347.953 151.593 345.985C149.822 341.998 150.511 342.507 164.927 335.38C168.185 333.77 169.62 332.929 170.865 333.152Z" fill="#3C0008"/>
<path d="M170.865 333.152C172.11 333.375 173.164 334.661 175.661 337.3C186.712 348.984 187.536 348.745 184.491 351.871C182.99 353.414 168.058 362.793 165.637 362.369C163.221 361.928 152.468 347.953 151.593 345.985C149.822 341.998 150.511 342.507 164.927 335.38C168.185 333.77 169.62 332.929 170.865 333.152Z" stroke="#F3F3F3" stroke-miterlimit="10" stroke-linecap="round" stroke-linejoin="round"/>
<path d="M166.686 356.505C168.616 356.849 170.786 355.863 174.572 353.788C180.377 350.607 180.684 350.915 175.256 343.912C173.218 341.285 171.569 339.857 169.724 339.527C167.88 339.197 165.838 339.964 163.017 341.723C155.496 346.409 155.892 346.226 160.232 351.222C163.064 354.481 164.757 356.159 166.686 356.505Z" fill="#3C0008"/>
<path d="M166.686 356.505C168.616 356.849 170.786 355.863 174.572 353.788C180.377 350.607 180.684 350.915 175.256 343.912C173.218 341.285 171.569 339.857 169.724 339.527C167.88 339.197 165.838 339.964 163.017 341.723C155.496 346.409 155.892 346.226 160.232 351.222C163.064 354.481 164.757 356.159 166.686 356.505Z" stroke="#F3F3F3" stroke-miterlimit="10" stroke-linecap="round" stroke-linejoin="round"/>
<path d="M174.158 314.746C193.82 318.264 213.104 323.896 214.169 328.451C215.697 334.987 175.287 331.236 171.352 330.429C167.381 329.821 128.178 319.329 131.877 313.728C134.455 309.825 154.496 311.228 174.158 314.746Z" fill="#3C0008"/>
<path d="M174.158 314.746C193.82 318.264 213.104 323.896 214.169 328.451C215.697 334.987 175.287 331.236 171.352 330.429C167.381 329.821 128.178 319.329 131.877 313.728C134.455 309.825 154.496 311.228 174.158 314.746Z" stroke="#F3F3F3" stroke-miterlimit="10" stroke-linecap="round" stroke-linejoin="round"/>
<path d="M173.913 316.112C228.588 326.111 213.462 332.858 172.237 325.483C131.012 318.106 119.165 306.534 173.913 316.112ZM171.375 330.297C200.418 335.714 229.504 331.153 209.864 321.877C199.72 317.085 187.391 313.391 174.803 311.139C162.215 308.887 149.37 308.077 138.194 309.055C116.557 310.946 142.257 325.309 171.375 330.297Z" fill="#3C0008"/>
<path d="M173.913 316.112C228.588 326.111 213.462 332.858 172.237 325.483C131.012 318.106 119.165 306.534 173.913 316.112ZM171.375 330.297C200.418 335.714 229.504 331.153 209.864 321.877C199.72 317.085 187.391 313.391 174.803 311.139C162.215 308.887 149.37 308.077 138.194 309.055C116.557 310.946 142.257 325.309 171.375 330.297Z" stroke="#F3F3F3" stroke-miterlimit="10" stroke-linecap="round" stroke-linejoin="round"/>
<path d="M168.943 368.906C178.776 369.533 188.8 366.445 196.576 360.396" stroke="#F3F3F3" stroke-miterlimit="10" stroke-linecap="round" stroke-linejoin="round"/>
<path d="M199.006 356.573C201.646 354.733 203.67 352.023 204.682 348.968" stroke="#F3F3F3" stroke-miterlimit="10" stroke-linecap="round" stroke-linejoin="round"/>
<path d="M133.204 327.027C132.295 336.26 134.968 345.8 140.543 353.216" stroke="#F3F3F3" stroke-miterlimit="10" stroke-linecap="round" stroke-linejoin="round"/>
<path d="M153.156 317.777C165.378 318.543 177.511 320.754 189.218 324.347" stroke="#F3F3F3" stroke-miterlimit="10" stroke-linecap="round" stroke-linejoin="round"/>
<path d="M193.52 325.034C195.119 325.478 196.718 325.923 198.316 326.367" stroke="#F3F3F3" stroke-miterlimit="10" stroke-linecap="round" stroke-linejoin="round"/>
<path d="M166.913 385.459C169.318 385.827 171.853 385.269 173.881 383.925" stroke="#F3F3F3" stroke-miterlimit="10" stroke-linecap="round" stroke-linejoin="round"/>
<path d="M164.673 396.061C166.888 396.319 169.664 396.301 170.693 394.322" stroke="#F3F3F3" stroke-miterlimit="10" stroke-linecap="round" stroke-linejoin="round"/>
<path d="M167.116 354.186C169.936 353.375 172.682 352.309 175.31 351.003" stroke="#F3F3F3" stroke-miterlimit="10" stroke-linecap="round" stroke-linejoin="round"/>
<path d="M170.611 341.915C171.972 343.646 173.333 345.375 174.695 347.106" stroke="#F3F3F3" stroke-miterlimit="10" stroke-linecap="round" stroke-linejoin="round"/>
<path d="M209.919 216.545C233.03 211.776 257.881 213.82 279.086 203.534C254.577 204.968 230.427 206.615 205.917 208.047C273.817 65.905 210.581 181.42 194.722 199.802C186.221 177.062 166.961 46.7873 181.363 203.654C158.871 193.813 136.79 183.894 114.299 174.051C130.622 191.052 154.641 197.752 174.663 210.237C151.554 215.006 126.702 212.964 105.497 223.249C130.006 221.816 154.156 220.169 178.665 218.736C110.766 360.879 174.001 245.363 189.86 226.982C198.361 249.721 217.623 379.996 203.219 223.129C225.712 232.971 247.793 242.889 270.284 252.731C253.96 235.732 229.943 229.031 209.919 216.545Z" fill="#3C0008"/>
<path d="M209.919 216.545C233.03 211.776 257.881 213.82 279.086 203.534C254.577 204.968 230.427 206.615 205.917 208.047C273.817 65.905 210.581 181.42 194.722 199.802C186.221 177.062 166.961 46.7873 181.363 203.654C158.871 193.813 136.79 183.894 114.299 174.051C130.622 191.052 154.641 197.752 174.663 210.237C151.554 215.006 126.702 212.964 105.497 223.249C130.006 221.816 154.156 220.169 178.665 218.736C110.766 360.879 174.001 245.363 189.86 226.982C198.361 249.721 217.623 379.996 203.219 223.129C225.712 232.971 247.793 242.889 270.284 252.731C253.96 235.732 229.943 229.031 209.919 216.545Z" stroke="#F3F3F3" stroke-miterlimit="10" stroke-linecap="round" stroke-linejoin="round"/>
<path d="M202.032 215.134C227.649 203.542 261.702 199.452 287.312 182.918C261.738 187.978 236.316 195.474 211.717 204.11C329.39 52.4296 197.353 204.297 194.238 202.511C190.698 203.106 119.507 14.8793 177.289 197.95C157.211 181.321 135.965 165.476 113.731 151.862C132.02 176.251 162.542 191.893 182.551 211.649C156.934 223.241 122.881 227.33 97.2704 243.865C122.845 238.806 148.267 231.31 172.866 222.673C55.1938 374.353 187.23 222.487 190.344 224.272C193.886 223.678 265.076 411.903 207.294 228.832C227.372 245.463 248.618 261.308 270.852 274.921C252.563 250.532 222.041 234.889 202.032 215.134Z" fill="#3C0008"/>
<path d="M202.032 215.134C227.649 203.542 261.702 199.452 287.312 182.918C261.738 187.978 236.316 195.474 211.717 204.11C329.39 52.4296 197.353 204.297 194.238 202.511C190.698 203.106 119.507 14.8793 177.289 197.95C157.211 181.321 135.965 165.476 113.731 151.862C132.02 176.251 162.542 191.893 182.551 211.649C156.934 223.241 122.881 227.33 97.2704 243.865C122.845 238.806 148.267 231.31 172.866 222.673C55.1938 374.353 187.23 222.487 190.344 224.272C193.886 223.678 265.076 411.903 207.294 228.832C227.372 245.463 248.618 261.308 270.852 274.921C252.563 250.532 222.041 234.889 202.032 215.134Z" stroke="#F3F3F3" stroke-miterlimit="10" stroke-linecap="round" stroke-linejoin="round"/>
<path d="M213.259 96.1919C216.293 141.157 219.453 171.837 214.414 201.63C223.352 200.92 285.188 227.573 294.139 231.613C284.342 232.3 217.101 235.858 208.963 232.094C203.36 261.785 190.673 284.359 172.237 325.483C169.204 280.518 165.13 254.945 170.169 225.154C161.232 225.863 99.3949 199.211 90.4438 195.17C100.241 194.484 167.482 190.924 175.619 194.689C181.222 164.997 194.824 137.316 213.259 96.1919Z" fill="#3C0008"/>
<path d="M213.259 96.1919C216.293 141.157 219.453 171.837 214.414 201.63C223.352 200.92 285.188 227.573 294.139 231.613C284.343 232.3 217.101 235.858 208.963 232.094C203.36 261.785 190.673 284.359 172.237 325.483C169.204 280.518 165.13 254.945 170.169 225.154C161.232 225.863 99.3949 199.211 90.4438 195.17C100.241 194.484 167.482 190.924 175.619 194.689C181.222 164.997 194.824 137.316 213.259 96.1919Z" stroke="#F3F3F3" stroke-miterlimit="10" stroke-linecap="round" stroke-linejoin="round"/>
<path d="M201.979 159.242C203.245 159.465 202.21 172.244 206.955 196.053C219.018 190.553 231.258 184.818 243.932 180.925C243.761 180.978 230.459 196.15 230.339 196.283C215.795 212.41 216.347 208.763 226.876 214.159C262.726 232.534 277.538 224.869 211.595 228.922C213.549 231.082 234.723 275.327 234.966 275.526C234.724 275.328 200.13 247.773 195.418 242.847C188.143 260.623 181.234 276.097 180.802 275.722C180.269 275.925 179.163 258.78 179.145 239.936C172.86 241.083 131.016 256.774 130.721 256.875C131.019 256.773 166.547 222.611 168.8 221.265C108.354 194.6 119.589 206.925 159.586 202.12C171.332 200.71 170.586 204.321 162.536 184.152C162.469 183.986 155.253 165.143 155.111 165.034C165.649 173.08 175.349 181.254 184.757 190.596C197.462 169.909 200.716 159.013 201.979 159.242Z" fill="#3C0008"/>
<path d="M201.979 159.242C203.245 159.465 202.21 172.244 206.955 196.053C219.018 190.553 231.258 184.818 243.932 180.925C243.761 180.978 230.459 196.15 230.339 196.283C215.795 212.41 216.347 208.763 226.876 214.159C262.726 232.534 277.538 224.869 211.595 228.922C213.549 231.082 234.723 275.327 234.966 275.526C234.724 275.328 200.13 247.773 195.418 242.847C188.143 260.623 181.234 276.097 180.802 275.722C180.269 275.925 179.163 258.78 179.145 239.936C172.86 241.083 131.016 256.774 130.721 256.875C131.019 256.773 166.547 222.611 168.8 221.265C108.354 194.6 119.589 206.925 159.586 202.12C171.332 200.71 170.586 204.321 162.536 184.152C162.469 183.986 155.253 165.143 155.111 165.034C165.649 173.08 175.349 181.254 184.757 190.596C197.462 169.909 200.716 159.013 201.979 159.242Z" stroke="#F3F3F3" stroke-miterlimit="10" stroke-linecap="round" stroke-linejoin="round"/>
<path d="M243.383 225.301C221.916 224.699 215.206 224.514 207.105 226.641C213.523 246.929 220.819 252.738 222.415 260.575C213.827 251.29 204.938 242.439 194.828 234.838C191.366 244.19 187.326 253.592 182.931 262.543C182.731 252.247 182.898 242.394 182.697 232.098C171.865 236.254 160.478 240.535 149.645 244.69C157.757 235.558 166.775 226.943 175.744 218.651C164.181 213.598 151.843 210.042 139.871 205.841C150.797 205.967 153.721 205.17 178.042 207.947C163.027 172.57 155.845 170.352 187.924 198.226C207.801 155.607 196.361 167.759 202.459 205.309C212.493 201.387 223.768 192.476 233.428 187.705C216.53 207.676 216.339 209.529 215.523 210.565C214.718 211.59 232.587 221.708 243.383 225.301Z" fill="#3C0008"/>
<path d="M243.383 225.301C221.916 224.699 215.206 224.514 207.105 226.641C213.523 246.929 220.819 252.738 222.415 260.575C213.827 251.29 204.938 242.439 194.828 234.838C191.366 244.19 187.326 253.592 182.931 262.543C182.731 252.247 182.898 242.394 182.697 232.098C171.865 236.254 160.478 240.535 149.645 244.69C157.757 235.558 166.775 226.943 175.744 218.651C164.181 213.598 151.843 210.042 139.871 205.841C150.797 205.967 153.721 205.17 178.042 207.947C163.027 172.57 155.845 170.352 187.924 198.226C207.801 155.607 196.361 167.759 202.459 205.309C212.493 201.387 223.768 192.476 233.428 187.705C216.53 207.676 216.339 209.529 215.523 210.565C214.718 211.59 232.587 221.708 243.383 225.301Z" stroke="#F3F3F3" stroke-miterlimit="10" stroke-linecap="round" stroke-linejoin="round"/>
<path d="M208.148 120.757C206.294 130.682 204.441 140.607 202.586 150.532" stroke="#F3F3F3" stroke-miterlimit="10" stroke-linecap="round" stroke-linejoin="round"/>
<path d="M179.8 279.552C178.795 287.354 177.553 298.716 175.491 307.293" stroke="#F3F3F3" stroke-miterlimit="10" stroke-linecap="round" stroke-linejoin="round"/>
<path d="M108.973 198.613C113.381 199.56 117.788 200.506 122.194 201.453" stroke="#F3F3F3" stroke-miterlimit="10" stroke-linecap="round" stroke-linejoin="round"/>
<path d="M264.394 226.938C268.52 227.717 272.685 228.284 276.868 228.635" stroke="#F3F3F3" stroke-miterlimit="10" stroke-linecap="round" stroke-linejoin="round"/>
<path d="M174.758 190.972C177.059 194.591 179.561 198.082 182.249 201.424" stroke="#F3F3F3" stroke-miterlimit="10" stroke-linecap="round" stroke-linejoin="round"/>
<path d="M193.833 202.934C194.987 198.248 196.14 193.562 197.292 188.877" stroke="#F3F3F3" stroke-miterlimit="10" stroke-linecap="round" stroke-linejoin="round"/>
<path d="M163.769 209.873C167.178 210.341 170.526 211.254 173.701 212.581" stroke="#F3F3F3" stroke-miterlimit="10" stroke-linecap="round" stroke-linejoin="round"/>
<path d="M165.845 233.034C170.386 230.09 175.112 227.432 179.986 225.08" stroke="#F3F3F3" stroke-miterlimit="10" stroke-linecap="round" stroke-linejoin="round"/>
<path d="M187.681 232.605C187.241 236.787 186.802 240.97 186.362 245.153" stroke="#F3F3F3" stroke-miterlimit="10" stroke-linecap="round" stroke-linejoin="round"/>
<path d="M201.014 232.089C204.303 234.621 207.267 237.57 209.815 240.845" stroke="#F3F3F3" stroke-miterlimit="10" stroke-linecap="round" stroke-linejoin="round"/>
<path d="M210.47 218.744C214.655 219.527 218.969 219.625 223.186 219.033" stroke="#F3F3F3" stroke-miterlimit="10" stroke-linecap="round" stroke-linejoin="round"/>
<path d="M205.83 210.294C211.359 205.403 217.092 200.741 223.007 196.327" stroke="#F3F3F3" stroke-miterlimit="10" stroke-linecap="round" stroke-linejoin="round"/>
<path d="M45.1497 436.917L61.0529 439.762" stroke="#F3F3F3" stroke-miterlimit="10" stroke-linecap="round" stroke-linejoin="round"/>
<path d="M236.902 471.223L252.804 474.068" stroke="#F3F3F3" stroke-miterlimit="10" stroke-linecap="round" stroke-linejoin="round"/>
<path d="M116.725 442.458L114.761 453.436L112.398 453.013L114.362 442.035L116.725 442.458ZM120.595 443.085L120.476 443.747L110.396 441.943L110.515 441.282L120.595 443.085ZM120.485 443.7L120.152 445.558L119.997 445.514L120.028 445.341C120.117 444.847 120.039 444.433 119.796 444.096C119.565 443.752 119.204 443.53 118.712 443.431L118.721 443.384L120.485 443.7ZM120.645 442.802L120.564 443.259L118.673 442.742C118.904 442.783 119.148 442.81 119.406 442.824C119.674 442.839 119.922 442.846 120.15 442.843C120.378 442.841 120.543 442.827 120.645 442.802ZM112.651 451.872L112.445 453.021L111.185 452.796L111.213 452.638C111.213 452.638 111.245 452.644 111.308 452.655C111.381 452.669 111.418 452.675 111.418 452.675C111.691 452.724 111.939 452.671 112.162 452.516C112.397 452.352 112.544 452.134 112.604 451.863L112.651 451.872ZM114.919 452.277L114.966 452.286C114.928 452.561 114.985 452.815 115.139 453.048C115.304 453.273 115.524 453.41 115.797 453.458C115.797 453.458 115.828 453.464 115.891 453.475C115.965 453.489 116.001 453.495 116.001 453.495L115.973 453.653L114.713 453.427L114.919 452.277ZM112.153 442.209L112.144 442.256C111.66 442.18 111.244 442.263 110.897 442.504C110.563 442.737 110.352 443.1 110.264 443.594L110.233 443.767L110.072 443.755L110.405 441.896L112.153 442.209ZM110.565 440.998C110.663 441.059 110.813 441.129 111.015 441.209C111.228 441.29 111.463 441.37 111.72 441.449C111.977 441.527 112.216 441.586 112.436 441.626L110.484 441.455L110.565 440.998ZM132.499 445.231L130.526 456.256L128.164 455.834L130.136 444.809L132.499 445.231ZM125.033 443.896L123.061 454.921L120.698 454.498L122.671 443.473L125.033 443.896ZM129.348 450.031L129.227 450.709L123.825 449.742L123.946 449.065L129.348 450.031ZM120.951 453.357L120.745 454.506L119.485 454.281L119.514 454.123C119.514 454.123 119.545 454.129 119.608 454.14C119.682 454.153 119.718 454.16 119.718 454.16C119.991 454.209 120.239 454.156 120.462 454.001C120.697 453.837 120.844 453.619 120.904 453.348L120.951 453.357ZM122.512 444.631L122.465 444.623C122.503 444.348 122.44 444.098 122.274 443.873C122.121 443.64 121.907 443.499 121.634 443.45C121.634 443.45 121.598 443.444 121.524 443.43C121.461 443.419 121.43 443.413 121.43 443.413L121.458 443.256L122.718 443.481L122.512 444.631ZM123.219 453.762L123.266 453.771C123.228 454.046 123.285 454.3 123.439 454.533C123.604 454.758 123.824 454.895 124.097 454.943C124.097 454.943 124.128 454.949 124.191 454.96C124.254 454.972 124.291 454.978 124.302 454.98L124.273 455.138L123.013 454.912L123.219 453.762ZM124.78 445.037L124.986 443.887L126.246 444.113L126.218 444.27C126.207 444.268 126.17 444.262 126.107 444.25C126.044 444.239 126.013 444.233 126.013 444.233C125.74 444.185 125.486 444.242 125.251 444.406C125.028 444.561 124.887 444.774 124.827 445.045L124.78 445.037ZM128.417 454.692L128.211 455.842L126.951 455.617L126.979 455.459C126.989 455.461 127.026 455.468 127.089 455.479C127.152 455.49 127.184 455.496 127.184 455.496C127.457 455.545 127.71 455.492 127.943 455.339C128.178 455.175 128.32 454.957 128.369 454.684L128.417 454.692ZM129.978 445.967L129.93 445.958C129.979 445.685 129.921 445.437 129.755 445.212C129.591 444.977 129.373 444.835 129.1 444.786C129.1 444.786 129.068 444.78 129.005 444.769C128.942 444.758 128.906 444.751 128.895 444.749L128.923 444.592L130.183 444.817L129.978 445.967ZM130.685 455.098L130.732 455.106C130.693 455.381 130.751 455.635 130.904 455.869C131.07 456.093 131.289 456.23 131.562 456.279C131.562 456.279 131.594 456.285 131.657 456.296C131.73 456.309 131.767 456.316 131.767 456.316L131.739 456.473L130.479 456.248L130.685 455.098ZM132.246 446.373L132.451 445.223L133.711 445.448L133.683 445.606C133.683 445.606 133.646 445.599 133.573 445.586C133.51 445.575 133.478 445.569 133.478 445.569C133.205 445.52 132.951 445.578 132.716 445.742C132.493 445.897 132.352 446.11 132.293 446.381L132.246 446.373ZM138.614 446.325L136.642 457.35L134.279 456.928L136.252 445.903L138.614 446.325ZM140.921 457.417L141.178 458.162L136.595 457.342L136.716 456.665L140.921 457.417ZM141.248 452.226L141.13 452.887L137.508 452.239L137.626 451.577L141.248 452.226ZM142.961 447.103L142.84 447.78L138.446 446.994L138.567 446.317L142.961 447.103ZM142.527 455.071L141.225 458.17L138.138 457.618L138.826 457.042C139.351 457.136 139.831 457.119 140.266 456.991C140.702 456.852 141.096 456.619 141.447 456.292C141.8 455.954 142.108 455.538 142.37 455.043L142.527 455.071ZM141.136 452.856L140.865 454.368L140.708 454.339L140.73 454.213C140.8 453.825 140.731 453.482 140.524 453.185C140.317 452.888 140.02 452.699 139.634 452.619L139.639 452.588L141.136 452.856ZM141.513 450.745L141.243 452.257L139.746 451.989L139.752 451.958C140.143 452.017 140.486 451.943 140.783 451.736C141.082 451.519 141.267 451.216 141.336 450.827L141.356 450.717L141.513 450.745ZM142.849 447.733L142.519 449.576L142.361 449.548L142.395 449.359C142.482 448.876 142.404 448.461 142.163 448.114C141.932 447.77 141.571 447.548 141.079 447.449L141.085 447.418L142.849 447.733ZM143.012 446.82L142.93 447.276L141.04 446.759C141.271 446.801 141.515 446.828 141.773 446.842C142.041 446.857 142.289 446.864 142.517 446.861C142.745 446.859 142.91 446.845 143.012 446.82ZM134.532 455.786L134.327 456.936L133.067 456.711L133.095 456.553C133.095 456.553 133.126 456.559 133.189 456.57C133.263 456.583 133.3 456.59 133.3 456.59C133.573 456.639 133.82 456.586 134.043 456.43C134.278 456.267 134.426 456.049 134.485 455.778L134.532 455.786ZM136.093 447.061L136.046 447.053C136.084 446.778 136.021 446.528 135.855 446.303C135.702 446.07 135.489 445.929 135.216 445.88C135.216 445.88 135.179 445.873 135.105 445.86C135.042 445.849 135.011 445.843 135.011 445.843L135.039 445.686L136.299 445.911L136.093 447.061ZM152.669 448.612C152.879 448.65 153.134 448.706 153.435 448.782C153.746 448.859 154.061 448.948 154.379 449.048C154.709 449.14 154.991 449.228 155.225 449.314C155.471 449.39 155.638 449.458 155.725 449.517L155.156 451.609L154.998 451.581C155.096 451.035 154.969 450.563 154.618 450.164C154.279 449.757 153.773 449.493 153.101 449.373C152.492 449.264 151.973 449.322 151.542 449.549C151.122 449.777 150.864 450.099 150.768 450.515C150.701 450.828 150.752 451.119 150.92 451.388C151.089 451.656 151.318 451.92 151.608 452.177L154.267 454.669C154.701 455.028 155 455.45 155.162 455.934C155.335 456.42 155.353 456.954 155.217 457.537C154.98 458.556 154.443 459.289 153.604 459.735C152.768 460.171 151.72 460.276 150.46 460.05C149.998 459.967 149.554 459.845 149.128 459.682C148.71 459.531 148.346 459.358 148.034 459.161C147.725 458.954 147.488 458.733 147.324 458.498C147.281 458.252 147.294 457.967 147.363 457.643C147.432 457.32 147.538 456.997 147.682 456.676C147.837 456.357 148.002 456.1 148.178 455.904L148.32 455.929C148.182 456.457 148.188 456.973 148.336 457.476C148.497 457.971 148.778 458.395 149.181 458.749C149.596 459.094 150.119 459.317 150.751 459.42C151.446 459.533 152.013 459.456 152.451 459.187C152.891 458.908 153.154 458.528 153.24 458.045C153.299 457.719 153.251 457.407 153.099 457.109C152.957 456.813 152.687 456.504 152.289 456.184L149.86 453.864C149.36 453.449 149.028 452.973 148.864 452.434C148.7 451.896 148.696 451.342 148.852 450.774C149.002 450.237 149.251 449.789 149.597 449.428C149.945 449.057 150.376 448.798 150.89 448.652C151.414 448.507 152.007 448.494 152.669 448.612ZM155.775 449.331L155.684 449.656L153.825 449.323L153.885 448.992L155.775 449.331ZM163.805 450.881L161.841 461.859L159.479 461.436L161.443 450.458L163.805 450.881ZM167.675 451.509L167.557 452.17L157.477 450.367L157.595 449.705L167.675 451.509ZM167.565 452.123L167.233 453.981L167.078 453.937L167.109 453.764C167.197 453.271 167.12 452.856 166.877 452.52C166.646 452.175 166.284 451.953 165.793 451.854L165.801 451.807L167.565 452.123ZM167.726 451.225L167.644 451.682L165.754 451.165C165.985 451.206 166.229 451.234 166.487 451.247C166.755 451.263 167.003 451.269 167.231 451.266C167.459 451.264 167.624 451.25 167.726 451.225ZM159.732 460.295L159.526 461.445L158.266 461.219L158.294 461.062C158.294 461.062 158.326 461.067 158.389 461.079C158.462 461.092 158.499 461.098 158.499 461.098C158.772 461.147 159.02 461.094 159.242 460.939C159.478 460.775 159.625 460.558 159.684 460.286L159.732 460.295ZM162 460.701L162.047 460.709C162.008 460.984 162.066 461.238 162.219 461.471C162.385 461.696 162.604 461.833 162.877 461.882C162.877 461.882 162.909 461.887 162.972 461.899C163.045 461.912 163.082 461.918 163.082 461.918L163.054 462.076L161.794 461.85L162 460.701ZM159.233 450.632L159.225 450.679C158.74 450.603 158.324 450.686 157.978 450.928C157.644 451.16 157.432 451.524 157.344 452.017L157.313 452.19L157.153 452.178L157.485 450.319L159.233 450.632ZM157.646 449.422C157.743 449.482 157.893 449.553 158.096 449.632C158.309 449.714 158.544 449.794 158.801 449.872C159.057 449.95 159.296 450.009 159.517 450.049L157.564 449.878L157.646 449.422ZM172.109 451.993L175.247 464.16L172.412 463.653L170.604 454.861L172.109 451.993ZM166.9 461.577C166.778 461.772 166.73 461.948 166.757 462.104C166.783 462.261 166.851 462.392 166.962 462.499C167.075 462.595 167.195 462.654 167.321 462.677L167.462 462.702L167.434 462.86L164.064 462.257L164.092 462.099C164.092 462.099 164.118 462.104 164.171 462.113C164.213 462.121 164.234 462.124 164.234 462.124C164.475 462.168 164.735 462.138 165.013 462.036C165.304 461.926 165.565 461.707 165.797 461.38L166.9 461.577ZM172.109 451.993L171.828 453.926L166.246 462.598L165.096 462.392L170.826 453.893C170.869 453.835 170.942 453.729 171.046 453.574C171.162 453.411 171.282 453.227 171.405 453.021C171.539 452.817 171.661 452.622 171.77 452.436C171.881 452.239 171.947 452.083 171.967 451.968L172.109 451.993ZM172.405 459.88L172.286 460.542L167.656 459.713L167.774 459.052L172.405 459.88ZM172.176 462.521L174.932 463.014C175.047 463.403 175.216 463.699 175.44 463.902C175.666 464.094 175.899 464.211 176.141 464.255C176.141 464.255 176.162 464.258 176.204 464.266C176.246 464.273 176.267 464.277 176.267 464.277L176.238 464.435L171.23 463.539L171.258 463.381L171.4 463.406C171.61 463.444 171.809 463.393 171.996 463.253C172.186 463.103 172.246 462.859 172.176 462.521ZM181.846 454.06L183.878 454.424C184.35 454.508 184.803 454.643 185.236 454.829C185.668 455.015 186.037 455.254 186.342 455.547C186.658 455.842 186.887 456.197 187.029 456.613C187.172 457.028 187.193 457.514 187.094 458.071C187.015 458.512 186.841 458.936 186.573 459.343C186.318 459.742 185.973 460.065 185.539 460.312C185.106 460.549 184.585 460.645 183.975 460.601C184.292 460.766 184.563 461.01 184.787 461.332C185.022 461.655 185.204 461.97 185.334 462.275C185.341 462.298 185.381 462.402 185.456 462.589C185.542 462.778 185.641 463.012 185.753 463.292C185.878 463.564 186.007 463.842 186.14 464.126C186.274 464.41 186.397 464.659 186.51 464.875C186.691 465.199 186.859 465.468 187.016 465.68C187.175 465.882 187.352 466.044 187.547 466.165C187.744 466.276 187.978 466.362 188.249 466.421L188.221 466.578L186.677 466.302C186.11 466.201 185.604 466.062 185.159 465.884C184.716 465.697 184.338 465.45 184.024 465.145C183.71 464.84 183.459 464.459 183.269 464.002C183.208 463.861 183.141 463.687 183.07 463.479C183.012 463.263 182.949 463.035 182.884 462.795C182.818 462.556 182.751 462.327 182.681 462.109C182.625 461.882 182.574 461.678 182.531 461.497C182.487 461.316 182.458 461.175 182.444 461.075C182.367 460.715 182.25 460.434 182.091 460.232C181.942 460.032 181.766 459.897 181.562 459.828L181.59 459.671C181.621 459.676 181.684 459.688 181.779 459.704C181.873 459.721 181.973 459.739 182.078 459.758C182.362 459.809 182.645 459.8 182.928 459.731C183.222 459.665 183.497 459.519 183.754 459.294C184.011 459.069 184.223 458.733 184.389 458.286C184.427 458.195 184.463 458.088 184.496 457.964C184.539 457.842 184.57 457.701 184.588 457.541C184.691 456.78 184.601 456.195 184.317 455.786C184.034 455.367 183.636 455.106 183.124 455.004C182.979 454.967 182.816 454.938 182.635 454.917C182.467 454.886 182.31 454.858 182.163 454.832C182.026 454.808 181.932 454.791 181.879 454.781C181.881 454.771 181.876 454.71 181.863 454.6C181.863 454.48 181.857 454.36 181.846 454.239C181.846 454.12 181.846 454.06 181.846 454.06ZM182.051 454.097L180.078 465.122L177.716 464.699L179.688 453.674L182.051 454.097ZM177.969 463.558L177.763 464.707L176.503 464.482L176.531 464.325C176.542 464.326 176.573 464.332 176.626 464.341C176.689 464.353 176.725 464.359 176.736 464.361C177.009 464.41 177.257 464.357 177.48 464.202C177.715 464.038 177.862 463.82 177.921 463.549L177.969 463.558ZM179.53 454.832L179.483 454.824C179.521 454.549 179.457 454.299 179.292 454.074C179.138 453.841 178.925 453.7 178.652 453.651C178.642 453.649 178.605 453.643 178.542 453.631C178.489 453.622 178.458 453.616 178.447 453.615L178.475 453.457L179.735 453.683L179.53 454.832ZM180.237 463.963L180.284 463.972C180.235 464.245 180.293 464.499 180.456 464.734C180.622 464.959 180.841 465.096 181.114 465.145C181.135 465.148 181.172 465.155 181.225 465.164C181.277 465.174 181.303 465.178 181.303 465.178L181.275 465.336L180.031 465.113L180.237 463.963Z" fill="#3C0008"/>
<path d="M210.4 52.7726L214.273 61.9868L212.183 61.6127L208.332 52.4027L210.4 52.7726ZM208.399 60.0703C208.309 60.1679 208.264 60.2778 208.267 60.4002C208.279 60.5161 208.325 60.6218 208.405 60.7175C208.487 60.8053 208.579 60.8583 208.682 60.8766C208.682 60.8766 208.705 60.8809 208.752 60.8893C208.808 60.8992 208.835 60.9041 208.835 60.9041L208.814 61.0222L205.896 60.5002L205.917 60.3821L206.083 60.4117C206.335 60.4568 206.576 60.4268 206.806 60.3217C207.036 60.2165 207.234 60.0854 207.401 59.9282L208.399 60.0703ZM210.465 56.9046L210.963 57.4571L207.668 60.8172L206.676 60.6397L210.465 56.9046ZM211.789 60.6768L213.895 61.1024C213.989 61.3061 214.129 61.4978 214.317 61.6776C214.505 61.8495 214.722 61.9573 214.966 62.001L215.131 62.0305L215.11 62.1487L211.082 61.428L211.103 61.3099C211.103 61.3099 211.127 61.3141 211.174 61.3226C211.229 61.3324 211.257 61.3374 211.257 61.3374C211.414 61.3655 211.558 61.31 211.689 61.1709C211.827 61.0331 211.861 60.8684 211.789 60.6768ZM211.51 52.9712L211.489 53.0893C211.489 53.0893 211.465 53.0851 211.418 53.0767C211.371 53.0682 211.347 53.064 211.347 53.064C211.237 53.0443 211.127 53.0653 211.019 53.1272C210.92 53.1825 210.848 53.2672 210.803 53.3811C210.759 53.4871 210.759 53.6009 210.803 53.7224L208.706 53.3108C208.613 53.1071 208.472 52.9154 208.285 52.7356C208.106 52.5572 207.89 52.4455 207.638 52.4004L207.473 52.3708L207.494 52.2527L211.51 52.9712ZM215.408 53.6686L211.791 57.3979L211.41 56.7324L214.404 53.489L215.408 53.6686ZM216.211 53.8123L216.19 53.9305L216.025 53.9009C215.781 53.8572 215.54 53.8872 215.302 53.9909C215.072 54.096 214.873 54.2272 214.707 54.3844L213.709 54.2423C213.799 54.1447 213.839 54.038 213.827 53.9221C213.824 53.7997 213.786 53.6954 213.712 53.609C213.64 53.5148 213.548 53.4578 213.438 53.438C213.438 53.438 213.414 53.4338 213.367 53.4254C213.32 53.4169 213.296 53.4127 213.296 53.4127L213.306 53.2924L216.211 53.8123ZM219.159 63.1169L216.758 53.9833L218.873 54.3616L220.3 60.9682L219.159 63.1169ZM219.159 63.1169L219.382 61.6695L223.639 55.1779L224.49 55.33L220.121 61.6921C220.097 61.7365 220.041 61.82 219.955 61.9426C219.877 62.0588 219.788 62.1932 219.687 62.3459C219.587 62.4986 219.495 62.6487 219.412 62.7964C219.338 62.9376 219.289 63.0507 219.266 63.136L219.159 63.1169ZM223.137 55.9413C223.282 55.7234 223.302 55.5402 223.199 55.3916C223.097 55.2352 222.971 55.1436 222.821 55.1169L222.715 55.0978L222.736 54.9797L225.264 55.432L225.243 55.5501C225.243 55.5501 225.223 55.5466 225.184 55.5395C225.152 55.5339 225.137 55.5311 225.137 55.5311C224.963 55.5001 224.768 55.526 224.55 55.6089C224.341 55.6854 224.15 55.8462 223.976 56.0914L223.137 55.9413ZM219.062 55.2122L216.983 54.8403C216.905 54.55 216.777 54.3321 216.6 54.1866C216.432 54.0347 216.258 53.9425 216.077 53.9101C216.077 53.9101 216.061 53.9073 216.029 53.9017C215.998 53.896 215.982 53.8932 215.982 53.8932L216.003 53.7751L219.76 54.4471L219.738 54.5653L219.632 54.5462C219.482 54.5195 219.337 54.5625 219.195 54.6752C219.062 54.7815 219.018 54.9605 219.062 55.2122ZM228.105 55.9403L226.626 64.209L224.854 63.892L226.334 55.6233L228.105 55.9403ZM225.044 63.0361L224.89 63.8984L223.945 63.7293L223.966 63.6112C223.966 63.6112 223.989 63.6154 224.037 63.6238C224.092 63.6337 224.119 63.6386 224.119 63.6386C224.324 63.6753 224.51 63.6354 224.677 63.519C224.854 63.3962 224.964 63.2331 225.009 63.0297L225.044 63.0361ZM226.215 56.492L226.179 56.4856C226.208 56.2795 226.16 56.0921 226.036 55.9236C225.921 55.7486 225.761 55.6428 225.556 55.6062C225.556 55.6062 225.529 55.6013 225.474 55.5914C225.427 55.5829 225.403 55.5787 225.403 55.5787L225.424 55.4606L226.369 55.6297L226.215 56.492ZM226.745 63.3404L226.78 63.3467C226.752 63.5529 226.795 63.7435 226.91 63.9184C227.034 64.087 227.198 64.1895 227.403 64.2262C227.403 64.2262 227.427 64.2304 227.474 64.2388C227.521 64.2473 227.549 64.2522 227.557 64.2536L227.536 64.3718L226.591 64.2027L226.745 63.3404ZM227.916 56.7963L228.07 55.934L229.015 56.1031L228.994 56.2212C228.986 56.2198 228.958 56.2148 228.911 56.2064C228.864 56.1979 228.84 56.1937 228.84 56.1937C228.636 56.1571 228.445 56.2002 228.269 56.323C228.102 56.4394 227.996 56.5993 227.951 56.8026L227.916 56.7963ZM232.674 56.7576L231.194 65.0263L229.422 64.7093L230.902 56.4406L232.674 56.7576ZM229.612 63.8533L229.458 64.7156L228.513 64.5466L228.534 64.4285C228.534 64.4285 228.558 64.4327 228.605 64.4411C228.66 64.451 228.687 64.4559 228.687 64.4559C228.892 64.4926 229.078 64.4527 229.245 64.3363C229.422 64.2134 229.532 64.0503 229.577 63.847L229.612 63.8533ZM230.783 57.3092L230.747 57.3029C230.776 57.0967 230.728 56.9094 230.604 56.7409C230.489 56.5659 230.329 56.4601 230.125 56.4235C230.125 56.4235 230.097 56.4185 230.042 56.4087C229.995 56.4002 229.971 56.396 229.971 56.396L229.992 56.2779L230.937 56.4469L230.783 57.3092ZM231.313 64.1577L231.348 64.164C231.32 64.3702 231.363 64.5607 231.478 64.7357C231.602 64.9042 231.767 65.0068 231.971 65.0434C231.971 65.0434 231.995 65.0477 232.042 65.0561C232.089 65.0646 232.117 65.0695 232.125 65.0709L232.104 65.189L231.159 65.02L231.313 64.1577ZM232.484 57.6136L232.638 56.7513L233.583 56.9203L233.562 57.0385C233.554 57.0371 233.527 57.0321 233.479 57.0237C233.432 57.0152 233.408 57.011 233.408 57.011C233.204 56.9744 233.013 57.0175 232.837 57.1403C232.67 57.2567 232.564 57.4166 232.519 57.6199L232.484 57.6136Z" fill="#3C0008"/>
</g>
</g>
<defs>
<clipPath id="clip0_139_886">
<rect width="367" height="520" fill="white"/>
</clipPath>
</defs>
</svg>
